<svg width="500" height="500" viewBox="70 -30 500 500" xmlns="http://www.w3.org/2000/svg">
<g shape-rendering="crispEdges">
<g transform="scale(10)">
<g data-layer="face" data-skin="brown" data-jaw="1">
<g data-piece="skin-base" data-color-token="skin.base" data-color-label="Skin Base" fill="#8a5a3c">
<rect x="17" y="15" width="30" height="20"/>
<rect x="15" y="18" width="2" height="13"/>
<rect x="47" y="18" width="2" height="13"/>
<rect x="17" y="35" width="30" height="7"/>
</g>
<g data-piece="skin-sh" data-color-token="skin.sh" data-color-label="Skin Sh" fill="#7a4e33">
<rect x="20" y="42" width="24" height="3"/>
<rect x="15" y="20" width="2" height="8"/>
<rect x="47" y="20" width="2" height="8"/>
<rect x="17" y="33" width="4" height="4"/>
<rect x="43" y="33" width="4" height="4"/>
</g>
<g data-piece="skin-hi" data-color-token="skin.hi" data-color-label="Skin Hi" fill="#9c6647">
<rect x="17" y="15" width="30" height="2"/>
<rect x="19" y="17" width="4" height="2"/>
<rect x="41" y="17" width="4" height="2"/>
<rect x="19" y="29" width="4" height="3"/>
<rect x="41" y="29" width="4" height="3"/>
<rect x="20" y="13" width="23" height="2"/>
</g>
</g>
<g data-layer="stubble" data-style="none" data-enabled="false">
</g>
<g data-layer="eyebrows" data-thickness="1" data-angle="flat" data-color="brown">
<rect x="20" y="21" width="8" height="1" fill="#46301a"/>
<rect x="36" y="21" width="8" height="1" fill="#46301a"/>
<rect x="20" y="20" width="3" height="1" fill="#6e4d2e"/>
<rect x="41" y="20" width="3" height="1" fill="#6e4d2e"/>
</g>
<g data-layer="eyes" data-shape="slanted" data-color="hazel">
<g data-piece="base" data-color="#dedddf" data-color-label="base" transform="translate(1 0)" fill="#dedddf">
<rect x="23" y="24" width="1" height="1"/>
<rect x="24" y="24" width="1" height="1"/>
<rect x="25" y="24" width="1" height="1"/>
<rect x="26" y="24" width="1" height="1"/>
<rect x="21" y="25" width="1" height="1"/>
<rect x="22" y="25" width="1" height="1"/>
<rect x="23" y="25" width="1" height="1"/>
<rect x="24" y="25" width="1" height="1"/>
<rect x="25" y="25" width="1" height="1"/>
<rect x="26" y="25" width="1" height="1"/>
<rect x="27" y="25" width="1" height="1"/>
<rect x="28" y="25" width="1" height="1"/>
<rect x="21" y="25" width="1" height="1"/>
<rect x="22" y="25" width="1" height="1"/>
<rect x="23" y="25" width="1" height="1"/>
<rect x="24" y="25" width="1" height="1"/>
<rect x="25" y="25" width="1" height="1"/>
<rect x="26" y="25" width="1" height="1"/>
<rect x="27" y="25" width="1" height="1"/>
<rect x="28" y="25" width="1" height="1"/>
<rect x="21" y="25" width="1" height="1"/>
<rect x="22" y="25" width="1" height="1"/>
<rect x="23" y="25" width="1" height="1"/>
<rect x="24" y="25" width="1" height="1"/>
<rect x="25" y="25" width="1" height="1"/>
<rect x="26" y="25" width="1" height="1"/>
<rect x="27" y="25" width="1" height="1"/>
<rect x="28" y="25" width="1" height="1"/>
<rect x="23" y="26" width="1" height="1"/>
<rect x="24" y="26" width="1" height="1"/>
<rect x="25" y="26" width="1" height="1"/>
<rect x="26" y="26" width="1" height="1"/>
<rect x="33" y="24" width="1" height="1"/>
<rect x="34" y="24" width="1" height="1"/>
<rect x="35" y="24" width="1" height="1"/>
<rect x="36" y="24" width="1" height="1"/>
<rect x="37" y="24" width="1" height="1"/>
<rect x="31" y="25" width="1" height="1"/>
<rect x="32" y="25" width="1" height="1"/>
<rect x="33" y="25" width="1" height="1"/>
<rect x="34" y="25" width="1" height="1"/>
<rect x="35" y="25" width="1" height="1"/>
<rect x="36" y="25" width="1" height="1"/>
<rect x="37" y="25" width="1" height="1"/>
<rect x="38" y="25" width="1" height="1"/>
<rect x="39" y="25" width="1" height="1"/>
<rect x="31" y="25" width="1" height="1"/>
<rect x="32" y="25" width="1" height="1"/>
<rect x="33" y="25" width="1" height="1"/>
<rect x="34" y="25" width="1" height="1"/>
<rect x="35" y="25" width="1" height="1"/>
<rect x="36" y="25" width="1" height="1"/>
<rect x="37" y="25" width="1" height="1"/>
<rect x="38" y="25" width="1" height="1"/>
<rect x="39" y="25" width="1" height="1"/>
<rect x="31" y="25" width="1" height="1"/>
<rect x="32" y="25" width="1" height="1"/>
<rect x="33" y="25" width="1" height="1"/>
<rect x="34" y="25" width="1" height="1"/>
<rect x="35" y="25" width="1" height="1"/>
<rect x="36" y="25" width="1" height="1"/>
<rect x="37" y="25" width="1" height="1"/>
<rect x="38" y="25" width="1" height="1"/>
<rect x="39" y="25" width="1" height="1"/>
<rect x="33" y="26" width="1" height="1"/>
<rect x="34" y="26" width="1" height="1"/>
<rect x="35" y="26" width="1" height="1"/>
<rect x="36" y="26" width="1" height="1"/>
<rect x="37" y="26" width="1" height="1"/>
</g>
<g data-piece="eyelids" data-color-token="skin.hi" data-color-label="eyelids" fill="#9c6647">
<rect x="23" y="23" width="1" height="1"/>
<rect x="24" y="23" width="1" height="1"/>
<rect x="25" y="23" width="1" height="1"/>
<rect x="26" y="23" width="1" height="1"/>
<rect x="27" y="23" width="1" height="1"/>
<rect x="28" y="23" width="1" height="1"/>
<rect x="22" y="24" width="1" height="1"/>
<rect x="23" y="24" width="1" height="1"/>
<rect x="24" y="24" width="1" height="1"/>
<rect x="25" y="24" width="1" height="1"/>
<rect x="26" y="24" width="1" height="1"/>
<rect x="27" y="24" width="1" height="1"/>
<rect x="28" y="24" width="1" height="1"/>
<rect x="29" y="24" width="1" height="1"/>
<rect x="33" y="23" width="1" height="1"/>
<rect x="34" y="23" width="1" height="1"/>
<rect x="35" y="23" width="1" height="1"/>
<rect x="36" y="23" width="1" height="1"/>
<rect x="37" y="23" width="1" height="1"/>
<rect x="38" y="23" width="1" height="1"/>
<rect x="39" y="23" width="1" height="1"/>
<rect x="32" y="24" width="1" height="1"/>
<rect x="33" y="24" width="1" height="1"/>
<rect x="34" y="24" width="1" height="1"/>
<rect x="35" y="24" width="1" height="1"/>
<rect x="36" y="24" width="1" height="1"/>
<rect x="37" y="24" width="1" height="1"/>
<rect x="38" y="24" width="1" height="1"/>
<rect x="39" y="24" width="1" height="1"/>
<rect x="40" y="24" width="1" height="1"/>
</g>
<g data-piece="pupils" data-color-token="eye.pupil" data-color-label="pupils" fill="#2a1e0e">
<rect x="26" y="25" width="1" height="1"/>
<rect x="26" y="26" width="1" height="1"/>
<rect x="27" y="26" width="1" height="1"/>
<rect x="36" y="25" width="1" height="1"/>
<rect x="36" y="25" width="1" height="1"/>
<rect x="36" y="26" width="1" height="1"/>
<rect x="37" y="26" width="1" height="1"/>
<rect x="38" y="26" width="1" height="1"/>
<rect x="38" y="25" width="1" height="1"/>
<rect x="37" y="25" width="1" height="1"/>
<rect x="38" y="25" width="1" height="1"/>
<rect x="27" y="25" width="1" height="1"/>
</g>
</g>
<g data-layer="nose" data-shape="medium">
<rect x="31" y="27" width="2" height="6" fill="#7a4e33"/>
<rect x="30" y="32" width="4" height="2" fill="#5e3a23"/>
<rect x="33" y="28" width="1" height="4" fill="#9c6647"/>
<rect x="29" y="33" width="2" height="1" fill="#5e3a23"/>
<rect x="33" y="33" width="2" height="1" fill="#5e3a23"/>
</g>
<g data-layer="mouth" data-fullness="thin" data-color="deep">
<g data-piece="color-1" data-color="#5e3a23" data-color-label="Color 1" fill="#5e3a23">
<rect x="27" y="37" width="10" height="1"/>
</g>
<g data-piece="lip" data-color-token="lip" data-color-label="Lip" fill="#7a4438">
<rect x="28" y="38" width="8" height="1"/>
</g>
<g data-piece="skin-hi" data-color-token="skin.hi" data-color-label="Skin Hi" fill="#9c6647"></g>
<g data-piece="skin-sh" data-color-token="skin.sh" data-color-label="Skin Sh" fill="#7a4e33"></g>
</g>
<g data-layer="neck" data-style="default">
<rect x="24" y="45" width="16" height="3" fill="#7a4e33"/>
<rect x="24" y="45" width="16" height="1" fill="#5e3a23"/>
<rect x="26" y="45" width="12" height="1" fill="#5e3a23"/>
</g>
<g data-layer="hair" data-style="big_afro" data-color="brown">
<g data-piece="hair-base" data-color-token="hair.base" data-color-label="Hair Base" fill="#5a3d22">
<rect x="9" y="11" width="46" height="8"/>
<rect x="12" y="19" width="40" height="2"/>
<rect x="12" y="21" width="11" height="2"/>
<rect x="43" y="21" width="9" height="2"/>
<rect x="11" y="1" width="41" height="2"/>
<rect x="14" y="-1" width="35" height="2"/>
<rect x="14" y="-2" width="35" height="1"/>
<rect x="17" y="22" width="1" height="1"/>
<rect x="18" y="22" width="1" height="1"/>
<rect x="19" y="22" width="1" height="1"/>
<rect x="17" y="23" width="1" height="1"/>
<rect x="18" y="23" width="1" height="1"/>
<rect x="19" y="23" width="1" height="1"/>
<rect x="17" y="24" width="1" height="1"/>
<rect x="18" y="24" width="1" height="1"/>
<rect x="19" y="24" width="1" height="1"/>
<rect x="17" y="25" width="1" height="1"/>
<rect x="18" y="25" width="1" height="1"/>
<rect x="19" y="25" width="1" height="1"/>
<rect x="17" y="26" width="1" height="1"/>
<rect x="18" y="26" width="1" height="1"/>
<rect x="19" y="26" width="1" height="1"/>
<rect x="17" y="27" width="1" height="1"/>
<rect x="18" y="27" width="1" height="1"/>
<rect x="19" y="27" width="1" height="1"/>
<rect x="44" y="21" width="1" height="1"/>
<rect x="45" y="21" width="1" height="1"/>
<rect x="46" y="21" width="1" height="1"/>
<rect x="44" y="22" width="1" height="1"/>
<rect x="45" y="22" width="1" height="1"/>
<rect x="46" y="22" width="1" height="1"/>
<rect x="44" y="23" width="1" height="1"/>
<rect x="45" y="23" width="1" height="1"/>
<rect x="46" y="23" width="1" height="1"/>
<rect x="44" y="24" width="1" height="1"/>
<rect x="45" y="24" width="1" height="1"/>
<rect x="46" y="24" width="1" height="1"/>
<rect x="44" y="25" width="1" height="1"/>
<rect x="45" y="25" width="1" height="1"/>
<rect x="46" y="25" width="1" height="1"/>
<rect x="44" y="26" width="1" height="1"/>
<rect x="45" y="26" width="1" height="1"/>
<rect x="46" y="26" width="1" height="1"/>
<rect x="44" y="27" width="1" height="1"/>
<rect x="45" y="27" width="1" height="1"/>
<rect x="46" y="27" width="1" height="1"/>
</g>
<g data-piece="brow-highlight" data-color-token="brow.hi" data-color-label="Brow Highlight" fill="#6e4d2e">
<rect x="10" y="3" width="43" height="8"/>
<rect x="13" y="14" width="1" height="1"/>
<rect x="14" y="14" width="1" height="1"/>
<rect x="15" y="14" width="1" height="1"/>
<rect x="16" y="14" width="1" height="1"/>
<rect x="17" y="14" width="1" height="1"/>
<rect x="13" y="15" width="1" height="1"/>
<rect x="14" y="15" width="1" height="1"/>
<rect x="15" y="15" width="1" height="1"/>
<rect x="16" y="15" width="1" height="1"/>
<rect x="17" y="15" width="1" height="1"/>
<rect x="13" y="16" width="1" height="1"/>
<rect x="14" y="16" width="1" height="1"/>
<rect x="15" y="16" width="1" height="1"/>
<rect x="16" y="16" width="1" height="1"/>
<rect x="17" y="16" width="1" height="1"/>
<rect x="13" y="17" width="1" height="1"/>
<rect x="14" y="17" width="1" height="1"/>
<rect x="15" y="17" width="1" height="1"/>
<rect x="16" y="17" width="1" height="1"/>
<rect x="17" y="17" width="1" height="1"/>
<rect x="13" y="18" width="1" height="1"/>
<rect x="14" y="18" width="1" height="1"/>
<rect x="15" y="18" width="1" height="1"/>
<rect x="16" y="18" width="1" height="1"/>
<rect x="17" y="18" width="1" height="1"/>
<rect x="22" y="15" width="1" height="1"/>
<rect x="23" y="15" width="1" height="1"/>
<rect x="22" y="16" width="1" height="1"/>
<rect x="23" y="16" width="1" height="1"/>
<rect x="22" y="14" width="1" height="1"/>
<rect x="23" y="14" width="1" height="1"/>
<rect x="45" y="13" width="1" height="1"/>
<rect x="46" y="13" width="1" height="1"/>
<rect x="47" y="13" width="1" height="1"/>
<rect x="48" y="13" width="1" height="1"/>
<rect x="49" y="13" width="1" height="1"/>
<rect x="45" y="14" width="1" height="1"/>
<rect x="46" y="14" width="1" height="1"/>
<rect x="47" y="14" width="1" height="1"/>
<rect x="48" y="14" width="1" height="1"/>
<rect x="49" y="14" width="1" height="1"/>
<rect x="45" y="15" width="1" height="1"/>
<rect x="46" y="15" width="1" height="1"/>
<rect x="47" y="15" width="1" height="1"/>
<rect x="48" y="15" width="1" height="1"/>
<rect x="49" y="15" width="1" height="1"/>
<rect x="45" y="16" width="1" height="1"/>
<rect x="46" y="16" width="1" height="1"/>
<rect x="47" y="16" width="1" height="1"/>
<rect x="48" y="16" width="1" height="1"/>
<rect x="49" y="16" width="1" height="1"/>
<rect x="45" y="17" width="1" height="1"/>
<rect x="46" y="17" width="1" height="1"/>
<rect x="47" y="17" width="1" height="1"/>
<rect x="48" y="17" width="1" height="1"/>
<rect x="49" y="17" width="1" height="1"/>
<rect x="30" y="12" width="1" height="1"/>
<rect x="31" y="12" width="1" height="1"/>
<rect x="32" y="12" width="1" height="1"/>
<rect x="33" y="12" width="1" height="1"/>
<rect x="30" y="13" width="1" height="1"/>
<rect x="31" y="13" width="1" height="1"/>
<rect x="32" y="13" width="1" height="1"/>
<rect x="33" y="13" width="1" height="1"/>
<rect x="30" y="14" width="1" height="1"/>
<rect x="31" y="14" width="1" height="1"/>
<rect x="32" y="14" width="1" height="1"/>
<rect x="33" y="14" width="1" height="1"/>
<rect x="30" y="15" width="1" height="1"/>
<rect x="31" y="15" width="1" height="1"/>
<rect x="32" y="15" width="1" height="1"/>
<rect x="33" y="15" width="1" height="1"/>
<rect x="37" y="13" width="1" height="1"/>
<rect x="38" y="13" width="1" height="1"/>
<rect x="39" y="13" width="1" height="1"/>
<rect x="40" y="13" width="1" height="1"/>
<rect x="37" y="14" width="1" height="1"/>
<rect x="38" y="14" width="1" height="1"/>
<rect x="39" y="14" width="1" height="1"/>
<rect x="40" y="14" width="1" height="1"/>
<rect x="37" y="15" width="1" height="1"/>
<rect x="38" y="15" width="1" height="1"/>
<rect x="39" y="15" width="1" height="1"/>
<rect x="40" y="15" width="1" height="1"/>
<rect x="37" y="16" width="1" height="1"/>
<rect x="38" y="16" width="1" height="1"/>
<rect x="39" y="16" width="1" height="1"/>
<rect x="40" y="16" width="1" height="1"/>
<rect x="24" y="15" width="1" height="1"/>
<rect x="24" y="16" width="1" height="1"/>
<rect x="22" y="17" width="1" height="1"/>
<rect x="23" y="17" width="1" height="1"/>
<rect x="24" y="17" width="1" height="1"/>
<rect x="25" y="15" width="1" height="1"/>
<rect x="25" y="16" width="1" height="1"/>
<rect x="25" y="17" width="1" height="1"/>
<rect x="37" y="17" width="1" height="1"/>
<rect x="38" y="17" width="1" height="1"/>
<rect x="39" y="17" width="1" height="1"/>
<rect x="40" y="17" width="1" height="1"/>
<rect x="41" y="15" width="1" height="1"/>
<rect x="41" y="16" width="1" height="1"/>
<rect x="41" y="17" width="1" height="1"/>
<rect x="39" y="18" width="1" height="1"/>
<rect x="40" y="18" width="1" height="1"/>
<rect x="41" y="18" width="1" height="1"/>
</g>
</g>
<g data-layer="headband" data-style="none">
</g>
</g>
</g>
</svg>