<svg width="500" height="500" viewBox="70 -30 500 500" xmlns="http://www.w3.org/2000/svg">
<g shape-rendering="crispEdges">
<g transform="scale(10)">
<g data-layer="face" data-skin="olive" data-jaw="1">
<g data-piece="skin-base" data-color-token="skin.base" data-color-label="Skin Base" fill="#b88457">
<rect x="17" y="15" width="30" height="20"/>
<rect x="15" y="18" width="2" height="13"/>
<rect x="47" y="18" width="2" height="13"/>
<rect x="17" y="35" width="30" height="7"/>
<rect x="31" y="5" width="1" height="1"/>
<rect x="30" y="5" width="1" height="1"/>
<rect x="29" y="5" width="1" height="1"/>
<rect x="28" y="5" width="1" height="1"/>
<rect x="27" y="5" width="1" height="1"/>
<rect x="26" y="5" width="1" height="1"/>
<rect x="25" y="5" width="1" height="1"/>
<rect x="25" y="6" width="1" height="1"/>
<rect x="24" y="6" width="1" height="1"/>
<rect x="24" y="7" width="1" height="1"/>
<rect x="23" y="7" width="1" height="1"/>
<rect x="23" y="8" width="1" height="1"/>
<rect x="22" y="8" width="1" height="1"/>
<rect x="22" y="9" width="1" height="1"/>
<rect x="21" y="9" width="1" height="1"/>
<rect x="21" y="10" width="1" height="1"/>
<rect x="20" y="10" width="1" height="1"/>
<rect x="20" y="11" width="1" height="1"/>
<rect x="32" y="5" width="1" height="1"/>
<rect x="33" y="5" width="1" height="1"/>
<rect x="34" y="5" width="1" height="1"/>
<rect x="35" y="5" width="1" height="1"/>
<rect x="36" y="5" width="1" height="1"/>
<rect x="37" y="5" width="1" height="1"/>
<rect x="38" y="5" width="1" height="1"/>
<rect x="38" y="6" width="1" height="1"/>
<rect x="39" y="6" width="1" height="1"/>
<rect x="40" y="6" width="1" height="1"/>
<rect x="40" y="7" width="1" height="1"/>
<rect x="41" y="7" width="1" height="1"/>
<rect x="41" y="8" width="1" height="1"/>
<rect x="41" y="9" width="1" height="1"/>
<rect x="42" y="9" width="1" height="1"/>
<rect x="42" y="10" width="1" height="1"/>
<rect x="43" y="10" width="1" height="1"/>
<rect x="43" y="11" width="1" height="1"/>
<rect x="43" y="12" width="1" height="1"/>
<rect x="43" y="13" width="1" height="1"/>
<rect x="44" y="13" width="1" height="1"/>
<rect x="44" y="14" width="1" height="1"/>
<rect x="45" y="14" width="1" height="1"/>
<rect x="45" y="15" width="1" height="1"/>
<rect x="20" y="12" width="1" height="1"/>
<rect x="20" y="13" width="1" height="1"/>
<rect x="42" y="14" width="1" height="1"/>
<rect x="42" y="13" width="1" height="1"/>
<rect x="42" y="12" width="1" height="1"/>
<rect x="42" y="11" width="1" height="1"/>
<rect x="42" y="15" width="1" height="1"/>
<rect x="43" y="14" width="1" height="1"/>
<rect x="25" y="9" width="1" height="1"/>
<rect x="24" y="10" width="1" height="1"/>
<rect x="23" y="10" width="1" height="1"/>
<rect x="23" y="11" width="1" height="1"/>
<rect x="22" y="11" width="1" height="1"/>
<rect x="22" y="12" width="1" height="1"/>
<rect x="23" y="12" width="1" height="1"/>
<rect x="26" y="12" width="1" height="1"/>
<rect x="27" y="12" width="1" height="1"/>
<rect x="28" y="11" width="1" height="1"/>
<rect x="29" y="11" width="1" height="1"/>
<rect x="30" y="11" width="1" height="1"/>
<rect x="30" y="10" width="1" height="1"/>
<rect x="31" y="10" width="1" height="1"/>
<rect x="32" y="10" width="1" height="1"/>
<rect x="32" y="9" width="1" height="1"/>
<rect x="33" y="9" width="1" height="1"/>
<rect x="33" y="8" width="1" height="1"/>
<rect x="34" y="8" width="1" height="1"/>
<rect x="34" y="7" width="1" height="1"/>
<rect x="35" y="7" width="1" height="1"/>
<rect x="35" y="6" width="1" height="1"/>
<rect x="36" y="6" width="1" height="1"/>
<rect x="37" y="6" width="1" height="1"/>
<rect x="32" y="8" width="1" height="1"/>
<rect x="31" y="9" width="1" height="1"/>
<rect x="29" y="12" width="1" height="1"/>
<rect x="30" y="12" width="1" height="1"/>
<rect x="27" y="11" width="1" height="1"/>
<rect x="28" y="12" width="1" height="1"/>
</g>
<g data-piece="skin-sh" data-color-token="skin.sh" data-color-label="Skin Sh" fill="#a5734a">
<rect x="20" y="42" width="24" height="3"/>
<rect x="15" y="20" width="2" height="8"/>
<rect x="47" y="20" width="2" height="8"/>
<rect x="17" y="33" width="4" height="4"/>
<rect x="43" y="33" width="4" height="4"/>
<rect x="26" y="8" width="1" height="1"/>
<rect x="25" y="8" width="1" height="1"/>
<rect x="24" y="8" width="1" height="1"/>
<rect x="24" y="9" width="1" height="1"/>
<rect x="23" y="9" width="1" height="1"/>
<rect x="23" y="10" width="1" height="1"/>
<rect x="22" y="10" width="1" height="1"/>
<rect x="21" y="10" width="1" height="1"/>
<rect x="21" y="11" width="1" height="1"/>
<rect x="21" y="12" width="1" height="1"/>
<rect x="22" y="12" width="1" height="1"/>
<rect x="22" y="11" width="1" height="1"/>
<rect x="23" y="11" width="1" height="1"/>
<rect x="24" y="11" width="1" height="1"/>
<rect x="25" y="11" width="1" height="1"/>
<rect x="25" y="10" width="1" height="1"/>
<rect x="26" y="10" width="1" height="1"/>
<rect x="26" y="9" width="1" height="1"/>
<rect x="27" y="9" width="1" height="1"/>
<rect x="27" y="8" width="1" height="1"/>
<rect x="28" y="8" width="1" height="1"/>
<rect x="26" y="7" width="1" height="1"/>
<rect x="26" y="6" width="1" height="1"/>
<rect x="27" y="6" width="1" height="1"/>
<rect x="28" y="6" width="1" height="1"/>
<rect x="29" y="6" width="1" height="1"/>
<rect x="30" y="6" width="1" height="1"/>
<rect x="28" y="7" width="1" height="1"/>
<rect x="27" y="7" width="1" height="1"/>
<rect x="25" y="7" width="1" height="1"/>
<rect x="29" y="7" width="1" height="1"/>
<rect x="30" y="7" width="1" height="1"/>
<rect x="31" y="7" width="1" height="1"/>
<rect x="32" y="7" width="1" height="1"/>
<rect x="33" y="7" width="1" height="1"/>
<rect x="31" y="8" width="1" height="1"/>
<rect x="30" y="8" width="1" height="1"/>
<rect x="29" y="8" width="1" height="1"/>
<rect x="29" y="9" width="1" height="1"/>
<rect x="28" y="9" width="1" height="1"/>
<rect x="28" y="10" width="1" height="1"/>
<rect x="27" y="10" width="1" height="1"/>
<rect x="26" y="11" width="1" height="1"/>
<rect x="25" y="12" width="1" height="1"/>
<rect x="24" y="12" width="1" height="1"/>
<rect x="27" y="11" width="1" height="1"/>
<rect x="29" y="10" width="1" height="1"/>
<rect x="30" y="9" width="1" height="1"/>
<rect x="32" y="6" width="1" height="1"/>
<rect x="31" y="6" width="1" height="1"/>
<rect x="33" y="6" width="1" height="1"/>
<rect x="34" y="6" width="1" height="1"/>
<rect x="31" y="12" width="1" height="1"/>
<rect x="32" y="11" width="1" height="1"/>
<rect x="33" y="10" width="1" height="1"/>
<rect x="34" y="9" width="1" height="1"/>
<rect x="35" y="9" width="1" height="1"/>
<rect x="36" y="9" width="1" height="1"/>
<rect x="36" y="8" width="1" height="1"/>
<rect x="37" y="8" width="1" height="1"/>
<rect x="37" y="7" width="1" height="1"/>
<rect x="36" y="7" width="1" height="1"/>
<rect x="35" y="8" width="1" height="1"/>
</g>
<g data-piece="skin-hi" data-color-token="skin.hi" data-color-label="Skin Hi" fill="#c89668">
<rect x="17" y="15" width="30" height="2"/>
<rect x="19" y="17" width="4" height="2"/>
<rect x="41" y="17" width="4" height="2"/>
<rect x="19" y="29" width="4" height="3"/>
<rect x="41" y="29" width="4" height="3"/>
<rect x="20" y="13" width="23" height="2"/>
<rect x="33" y="10" width="1" height="1"/>
<rect x="33" y="11" width="1" height="1"/>
<rect x="32" y="11" width="1" height="1"/>
<rect x="31" y="11" width="1" height="1"/>
<rect x="31" y="12" width="1" height="1"/>
<rect x="30" y="12" width="1" height="1"/>
<rect x="32" y="10" width="1" height="1"/>
<rect x="33" y="9" width="1" height="1"/>
<rect x="34" y="11" width="1" height="1"/>
<rect x="34" y="10" width="1" height="1"/>
<rect x="35" y="10" width="1" height="1"/>
<rect x="36" y="10" width="1" height="1"/>
<rect x="37" y="9" width="1" height="1"/>
<rect x="36" y="9" width="1" height="1"/>
<rect x="33" y="12" width="1" height="1"/>
<rect x="32" y="12" width="1" height="1"/>
<rect x="35" y="11" width="1" height="1"/>
<rect x="36" y="11" width="1" height="1"/>
<rect x="37" y="11" width="1" height="1"/>
<rect x="37" y="10" width="1" height="1"/>
<rect x="38" y="10" width="1" height="1"/>
<rect x="38" y="9" width="1" height="1"/>
<rect x="39" y="9" width="1" height="1"/>
<rect x="39" y="8" width="1" height="1"/>
<rect x="38" y="8" width="1" height="1"/>
<rect x="38" y="7" width="1" height="1"/>
<rect x="39" y="7" width="1" height="1"/>
<rect x="39" y="10" width="1" height="1"/>
<rect x="40" y="10" width="1" height="1"/>
<rect x="38" y="11" width="1" height="1"/>
<rect x="35" y="12" width="1" height="1"/>
<rect x="34" y="12" width="1" height="1"/>
<rect x="36" y="12" width="1" height="1"/>
<rect x="39" y="11" width="1" height="1"/>
<rect x="40" y="11" width="1" height="1"/>
<rect x="39" y="12" width="1" height="1"/>
<rect x="38" y="12" width="1" height="1"/>
<rect x="37" y="12" width="1" height="1"/>
<rect x="40" y="12" width="1" height="1"/>
<rect x="41" y="11" width="1" height="1"/>
<rect x="41" y="10" width="1" height="1"/>
<rect x="41" y="9" width="1" height="1"/>
<rect x="40" y="9" width="1" height="1"/>
<rect x="40" y="8" width="1" height="1"/>
<rect x="42" y="11" width="1" height="1"/>
<rect x="42" y="12" width="1" height="1"/>
<rect x="41" y="12" width="1" height="1"/>
<rect x="41" y="13" width="1" height="1"/>
<rect x="40" y="13" width="1" height="1"/>
<rect x="33" y="6" width="1" height="1"/>
<rect x="33" y="7" width="1" height="1"/>
<rect x="32" y="7" width="1" height="1"/>
<rect x="31" y="7" width="1" height="1"/>
<rect x="31" y="8" width="1" height="1"/>
<rect x="30" y="8" width="1" height="1"/>
<rect x="29" y="8" width="1" height="1"/>
<rect x="29" y="9" width="1" height="1"/>
<rect x="28" y="9" width="1" height="1"/>
<rect x="27" y="9" width="1" height="1"/>
<rect x="27" y="10" width="1" height="1"/>
<rect x="26" y="10" width="1" height="1"/>
<rect x="26" y="11" width="1" height="1"/>
<rect x="25" y="11" width="1" height="1"/>
<rect x="24" y="11" width="1" height="1"/>
<rect x="31" y="6" width="1" height="1"/>
<rect x="30" y="6" width="1" height="1"/>
<rect x="29" y="6" width="1" height="1"/>
<rect x="29" y="7" width="1" height="1"/>
<rect x="28" y="7" width="1" height="1"/>
<rect x="28" y="8" width="1" height="1"/>
<rect x="27" y="8" width="1" height="1"/>
<rect x="26" y="8" width="1" height="1"/>
<rect x="26" y="9" width="1" height="1"/>
<rect x="25" y="9" width="1" height="1"/>
<rect x="24" y="9" width="1" height="1"/>
<rect x="24" y="10" width="1" height="1"/>
<rect x="23" y="10" width="1" height="1"/>
<rect x="23" y="11" width="1" height="1"/>
<rect x="22" y="11" width="1" height="1"/>
<rect x="21" y="11" width="1" height="1"/>
<rect x="27" y="6" width="1" height="1"/>
<rect x="26" y="7" width="1" height="1"/>
<rect x="25" y="7" width="1" height="1"/>
<rect x="25" y="8" width="1" height="1"/>
<rect x="24" y="8" width="1" height="1"/>
<rect x="23" y="9" width="1" height="1"/>
<rect x="22" y="9" width="1" height="1"/>
<rect x="22" y="10" width="1" height="1"/>
<rect x="30" y="7" width="1" height="1"/>
<rect x="28" y="6" width="1" height="1"/>
<rect x="26" y="6" width="1" height="1"/>
<rect x="28" y="11" width="1" height="1"/>
<rect x="29" y="11" width="1" height="1"/>
<rect x="30" y="11" width="1" height="1"/>
<rect x="31" y="10" width="1" height="1"/>
<rect x="32" y="9" width="1" height="1"/>
<rect x="33" y="8" width="1" height="1"/>
<rect x="34" y="8" width="1" height="1"/>
<rect x="34" y="7" width="1" height="1"/>
<rect x="35" y="7" width="1" height="1"/>
<rect x="36" y="7" width="1" height="1"/>
<rect x="20" y="11" width="1" height="1"/>
<rect x="21" y="12" width="1" height="1"/>
<rect x="22" y="12" width="1" height="1"/>
<rect x="23" y="12" width="1" height="1"/>
<rect x="24" y="12" width="1" height="1"/>
<rect x="25" y="12" width="1" height="1"/>
<rect x="26" y="12" width="1" height="1"/>
<rect x="27" y="12" width="1" height="1"/>
<rect x="28" y="12" width="1" height="1"/>
<rect x="30" y="10" width="1" height="1"/>
<rect x="31" y="9" width="1" height="1"/>
<rect x="27" y="11" width="1" height="1"/>
<rect x="28" y="10" width="1" height="1"/>
<rect x="30" y="9" width="1" height="1"/>
<rect x="32" y="8" width="1" height="1"/>
<rect x="34" y="9" width="1" height="1"/>
<rect x="35" y="8" width="1" height="1"/>
<rect x="36" y="8" width="1" height="1"/>
<rect x="19" y="14" width="1" height="1"/>
<rect x="19" y="13" width="1" height="1"/>
<rect x="19" y="12" width="1" height="1"/>
<rect x="20" y="12" width="1" height="1"/>
<rect x="18" y="13" width="1" height="1"/>
<rect x="18" y="14" width="1" height="1"/>
<rect x="17" y="14" width="1" height="1"/>
<rect x="18" y="15" width="1" height="1"/>
</g>
</g>
<g data-layer="eyebrows" data-thickness="1" data-angle="up" data-color="dark_brown">
<rect x="20" y="21" width="8" height="1" fill="#2b1d12"/>
<rect x="36" y="21" width="8" height="1" fill="#2b1d12"/>
<rect x="20" y="20" width="3" height="1" fill="#2b1d12"/>
<rect x="41" y="20" width="3" height="1" fill="#2b1d12"/>
</g>
<g data-layer="eyes" data-shape="round" data-color="brown">
<g data-piece="color-1" data-color="#ffffff" data-color-label="Eye" fill="#ffffff">
<rect x="20" y="24" width="8" height="4"/>
<rect x="36" y="24" width="8" height="4"/>
<rect x="24" y="24" width="1" height="1"/>
<rect x="39" y="24" width="1" height="1"/>
</g>
<g data-piece="eye-iris" data-color-token="eye.iris" data-color-label="Iris" data-color-opacity="0.73" fill="#5a3a26">
<rect x="23" y="24" width="3" height="4"/>
<rect x="38" y="24" width="3" height="4"/>
</g>
<g data-piece="eye-pupil" data-color-token="eye.pupil" data-color-label="Pupil" fill="#1c1208">
<rect x="24" y="24" width="2" height="2"/>
<rect x="39" y="24" width="2" height="2"/>
</g>
<g data-piece="skin-sh" data-color-token="skin.sh" data-color-label="Under eyelids" fill="#a5734a">
<rect x="20" y="28" width="8" height="1"/>
<rect x="36" y="28" width="8" height="1"/>
</g>
</g>
<g data-layer="nose" data-shape="broad">
<rect x="30" y="28" width="4" height="6" fill="#a5734a"/>
<rect x="29" y="33" width="6" height="2" fill="#8a5c38"/>
<rect x="33" y="29" width="1" height="4" fill="#c89668"/>
<rect x="28" y="34" width="2" height="1" fill="#8a5c38"/>
<rect x="34" y="34" width="2" height="1" fill="#8a5c38"/>
<rect x="31" y="33" width="2" height="2" fill="#b88457"/>
</g>
<g data-layer="neck" data-style="default">
<rect x="24" y="45" width="16" height="3" fill="#a5734a"/>
<rect x="24" y="45" width="16" height="1" fill="#8a5c38"/>
<rect x="26" y="45" width="12" height="1" fill="#8a5c38"/>
</g>
<g data-layer="stubble" data-style="none" data-enabled="false">
</g>
<g data-layer="mouth" data-fullness="thin" data-color="pale">
<g data-piece="color-1" data-color="#5e3a23" data-color-label="Color 1" fill="#5e3a23">
<rect x="27" y="37" width="10" height="1"/>
</g>
<g data-piece="lip" data-color-token="lip" data-color-label="Lip" fill="#ffa096">
<rect x="28" y="38" width="8" height="1"/>
</g>
<g data-piece="skin-hi" data-color-token="skin.hi" data-color-label="Skin Hi" fill="#c89668"></g>
<g data-piece="skin-sh" data-color-token="skin.sh" data-color-label="Skin Sh" fill="#a5734a"></g>
</g>
<g data-layer="hair" data-style="big_afro" data-color="dark_brown">
<g data-piece="hair-base" data-color-token="hair.base" data-color-label="Hair Base" fill="#3a2817">
<rect x="9" y="11" width="46" height="8"/>
<rect x="12" y="19" width="40" height="2"/>
<rect x="12" y="21" width="11" height="2"/>
<rect x="43" y="21" width="9" height="2"/>
<rect x="11" y="1" width="41" height="2"/>
<rect x="14" y="-1" width="35" height="2"/>
<rect x="14" y="-2" width="35" height="1"/>
<rect x="17" y="22" width="1" height="1"/>
<rect x="18" y="22" width="1" height="1"/>
<rect x="19" y="22" width="1" height="1"/>
<rect x="17" y="23" width="1" height="1"/>
<rect x="18" y="23" width="1" height="1"/>
<rect x="19" y="23" width="1" height="1"/>
<rect x="17" y="24" width="1" height="1"/>
<rect x="18" y="24" width="1" height="1"/>
<rect x="19" y="24" width="1" height="1"/>
<rect x="17" y="25" width="1" height="1"/>
<rect x="18" y="25" width="1" height="1"/>
<rect x="19" y="25" width="1" height="1"/>
<rect x="17" y="26" width="1" height="1"/>
<rect x="18" y="26" width="1" height="1"/>
<rect x="19" y="26" width="1" height="1"/>
<rect x="17" y="27" width="1" height="1"/>
<rect x="18" y="27" width="1" height="1"/>
<rect x="19" y="27" width="1" height="1"/>
<rect x="44" y="21" width="1" height="1"/>
<rect x="45" y="21" width="1" height="1"/>
<rect x="46" y="21" width="1" height="1"/>
<rect x="44" y="22" width="1" height="1"/>
<rect x="45" y="22" width="1" height="1"/>
<rect x="46" y="22" width="1" height="1"/>
<rect x="44" y="23" width="1" height="1"/>
<rect x="45" y="23" width="1" height="1"/>
<rect x="46" y="23" width="1" height="1"/>
<rect x="44" y="24" width="1" height="1"/>
<rect x="45" y="24" width="1" height="1"/>
<rect x="46" y="24" width="1" height="1"/>
<rect x="44" y="25" width="1" height="1"/>
<rect x="45" y="25" width="1" height="1"/>
<rect x="46" y="25" width="1" height="1"/>
<rect x="44" y="26" width="1" height="1"/>
<rect x="45" y="26" width="1" height="1"/>
<rect x="46" y="26" width="1" height="1"/>
<rect x="44" y="27" width="1" height="1"/>
<rect x="45" y="27" width="1" height="1"/>
<rect x="46" y="27" width="1" height="1"/>
</g>
<g data-piece="brow-highlight" data-color-token="brow.hi" data-color-label="Brow Highlight" fill="#4a3320">
<rect x="10" y="3" width="43" height="8"/>
<rect x="13" y="14" width="1" height="1"/>
<rect x="14" y="14" width="1" height="1"/>
<rect x="15" y="14" width="1" height="1"/>
<rect x="16" y="14" width="1" height="1"/>
<rect x="17" y="14" width="1" height="1"/>
<rect x="13" y="15" width="1" height="1"/>
<rect x="14" y="15" width="1" height="1"/>
<rect x="15" y="15" width="1" height="1"/>
<rect x="16" y="15" width="1" height="1"/>
<rect x="17" y="15" width="1" height="1"/>
<rect x="13" y="16" width="1" height="1"/>
<rect x="14" y="16" width="1" height="1"/>
<rect x="15" y="16" width="1" height="1"/>
<rect x="16" y="16" width="1" height="1"/>
<rect x="17" y="16" width="1" height="1"/>
<rect x="13" y="17" width="1" height="1"/>
<rect x="14" y="17" width="1" height="1"/>
<rect x="15" y="17" width="1" height="1"/>
<rect x="16" y="17" width="1" height="1"/>
<rect x="17" y="17" width="1" height="1"/>
<rect x="13" y="18" width="1" height="1"/>
<rect x="14" y="18" width="1" height="1"/>
<rect x="15" y="18" width="1" height="1"/>
<rect x="16" y="18" width="1" height="1"/>
<rect x="17" y="18" width="1" height="1"/>
<rect x="22" y="15" width="1" height="1"/>
<rect x="23" y="15" width="1" height="1"/>
<rect x="22" y="16" width="1" height="1"/>
<rect x="23" y="16" width="1" height="1"/>
<rect x="22" y="14" width="1" height="1"/>
<rect x="23" y="14" width="1" height="1"/>
<rect x="45" y="13" width="1" height="1"/>
<rect x="46" y="13" width="1" height="1"/>
<rect x="47" y="13" width="1" height="1"/>
<rect x="48" y="13" width="1" height="1"/>
<rect x="49" y="13" width="1" height="1"/>
<rect x="45" y="14" width="1" height="1"/>
<rect x="46" y="14" width="1" height="1"/>
<rect x="47" y="14" width="1" height="1"/>
<rect x="48" y="14" width="1" height="1"/>
<rect x="49" y="14" width="1" height="1"/>
<rect x="45" y="15" width="1" height="1"/>
<rect x="46" y="15" width="1" height="1"/>
<rect x="47" y="15" width="1" height="1"/>
<rect x="48" y="15" width="1" height="1"/>
<rect x="49" y="15" width="1" height="1"/>
<rect x="45" y="16" width="1" height="1"/>
<rect x="46" y="16" width="1" height="1"/>
<rect x="47" y="16" width="1" height="1"/>
<rect x="48" y="16" width="1" height="1"/>
<rect x="49" y="16" width="1" height="1"/>
<rect x="45" y="17" width="1" height="1"/>
<rect x="46" y="17" width="1" height="1"/>
<rect x="47" y="17" width="1" height="1"/>
<rect x="48" y="17" width="1" height="1"/>
<rect x="49" y="17" width="1" height="1"/>
<rect x="30" y="12" width="1" height="1"/>
<rect x="31" y="12" width="1" height="1"/>
<rect x="32" y="12" width="1" height="1"/>
<rect x="33" y="12" width="1" height="1"/>
<rect x="30" y="13" width="1" height="1"/>
<rect x="31" y="13" width="1" height="1"/>
<rect x="32" y="13" width="1" height="1"/>
<rect x="33" y="13" width="1" height="1"/>
<rect x="30" y="14" width="1" height="1"/>
<rect x="31" y="14" width="1" height="1"/>
<rect x="32" y="14" width="1" height="1"/>
<rect x="33" y="14" width="1" height="1"/>
<rect x="30" y="15" width="1" height="1"/>
<rect x="31" y="15" width="1" height="1"/>
<rect x="32" y="15" width="1" height="1"/>
<rect x="33" y="15" width="1" height="1"/>
<rect x="37" y="13" width="1" height="1"/>
<rect x="38" y="13" width="1" height="1"/>
<rect x="39" y="13" width="1" height="1"/>
<rect x="40" y="13" width="1" height="1"/>
<rect x="37" y="14" width="1" height="1"/>
<rect x="38" y="14" width="1" height="1"/>
<rect x="39" y="14" width="1" height="1"/>
<rect x="40" y="14" width="1" height="1"/>
<rect x="37" y="15" width="1" height="1"/>
<rect x="38" y="15" width="1" height="1"/>
<rect x="39" y="15" width="1" height="1"/>
<rect x="40" y="15" width="1" height="1"/>
<rect x="37" y="16" width="1" height="1"/>
<rect x="38" y="16" width="1" height="1"/>
<rect x="39" y="16" width="1" height="1"/>
<rect x="40" y="16" width="1" height="1"/>
<rect x="24" y="15" width="1" height="1"/>
<rect x="24" y="16" width="1" height="1"/>
<rect x="22" y="17" width="1" height="1"/>
<rect x="23" y="17" width="1" height="1"/>
<rect x="24" y="17" width="1" height="1"/>
<rect x="25" y="15" width="1" height="1"/>
<rect x="25" y="16" width="1" height="1"/>
<rect x="25" y="17" width="1" height="1"/>
<rect x="37" y="17" width="1" height="1"/>
<rect x="38" y="17" width="1" height="1"/>
<rect x="39" y="17" width="1" height="1"/>
<rect x="40" y="17" width="1" height="1"/>
<rect x="41" y="15" width="1" height="1"/>
<rect x="41" y="16" width="1" height="1"/>
<rect x="41" y="17" width="1" height="1"/>
<rect x="39" y="18" width="1" height="1"/>
<rect x="40" y="18" width="1" height="1"/>
<rect x="41" y="18" width="1" height="1"/>
</g>
</g>
<g data-layer="headband" data-style="none">
</g>
</g>
</g>
</svg>