<svg width="500" height="500" viewBox="70 -30 500 500" xmlns="http://www.w3.org/2000/svg">
<g shape-rendering="crispEdges">
<g transform="scale(10)">
<g data-layer="face" data-skin="dark" data-jaw="3">
<g data-piece="skin-base" data-color-token="skin.base" data-color-label="Skin Base" fill="#6e4326">
<rect x="17" y="15" width="30" height="17"/>
<rect x="19" y="32" width="26" height="3"/>
<rect x="15" y="18" width="2" height="13"/>
<rect x="47" y="18" width="2" height="13"/>
<rect x="20" y="37" width="24" height="3"/>
<rect x="21" y="40" width="22" height="2"/>
<rect x="19" y="35" width="26" height="2"/>
</g>
<g data-piece="skin-sh" data-color-token="skin.sh" data-color-label="Skin Sh" fill="#5a3620">
<rect x="22" y="42" width="20" height="1"/>
<rect x="23" y="43" width="18" height="2"/>
<rect x="15" y="20" width="2" height="8"/>
<rect x="47" y="20" width="2" height="8"/>
<rect x="19" y="33" width="2" height="4"/>
<rect x="43" y="33" width="2" height="4"/>
</g>
<g data-piece="skin-hi" data-color-token="skin.hi" data-color-label="Skin Hi" fill="#85553a">
<rect x="17" y="15" width="30" height="2"/>
<rect x="19" y="17" width="4" height="2"/>
<rect x="41" y="17" width="4" height="2"/>
<rect x="19" y="29" width="4" height="3"/>
<rect x="41" y="29" width="4" height="3"/>
<rect x="20" y="13" width="23" height="2"/>
</g>
</g>
<g data-layer="stubble" data-style="none" data-enabled="false">
</g>
<g data-layer="eyebrows" data-thickness="2" data-angle="up" data-color="dark_brown">
<rect x="19" y="21" width="9" height="2" fill="#2b1d12"/>
<rect x="36" y="21" width="9" height="2" fill="#2b1d12"/>
<rect x="19" y="20" width="3" height="1" fill="#2b1d12"/>
<rect x="42" y="20" width="3" height="1" fill="#2b1d12"/>
</g>
<g data-layer="eyes" data-shape="almond" data-color="green">
<g data-piece="color-1" data-color="#ffffff" data-color-label="Color 1" transform="translate(1 0)" fill="#ffffff">
<rect x="20" y="25" width="7" height="2"/>
<rect x="35" y="25" width="7" height="2"/>
<rect x="24" y="25" width="1" height="1"/>
<rect x="37" y="25" width="1" height="1"/>
</g>
<g data-piece="eye-iris" data-color-token="eye.iris" data-color-label="Eye Iris" transform="translate(1 0)" fill="#5a8a5a">
<rect x="23" y="25" width="3" height="2"/>
<rect x="37" y="25" width="3" height="2"/>
</g>
<g data-piece="eye-pupil" data-color-token="eye.pupil" data-color-label="Eye Pupil" transform="translate(1 0)" fill="#1e2e1e">
<rect x="24" y="25" width="2" height="2"/>
<rect x="37" y="25" width="2" height="2"/>
</g>
<g data-piece="skin-deep" data-color-token="skin.deep" data-color-label="Skin Deep" transform="translate(1 0)" fill="#472a18">
<rect x="20" y="24" width="7" height="1"/>
<rect x="35" y="24" width="7" height="1"/>
</g>
<g data-piece="skin-sh" data-color-token="skin.sh" data-color-label="Skin Sh" transform="translate(1 0)" fill="#5a3620">
<rect x="20" y="27" width="7" height="1"/>
<rect x="35" y="27" width="7" height="1"/>
</g>
</g>
<g data-layer="nose" data-shape="broad">
<rect x="30" y="28" width="4" height="6" fill="#5a3620"/>
<rect x="29" y="33" width="6" height="2" fill="#472a18"/>
<rect x="33" y="29" width="1" height="4" fill="#85553a"/>
<rect x="28" y="34" width="2" height="1" fill="#472a18"/>
<rect x="34" y="34" width="2" height="1" fill="#472a18"/>
<rect x="31" y="33" width="2" height="2" fill="#6e4326"/>
</g>
<g data-layer="mouth" data-fullness="full" data-color="warm">
<g data-piece="color-1" data-color="#8a4a3c" data-color-label="Color 1" fill="#8a4a3c">
<rect x="27" y="38" width="10" height="1"/>
</g>
<g data-piece="lip" data-color-token="lip" data-color-label="Lip" fill="#8a4a3c">
<rect x="28" y="39" width="8" height="2"/>
</g>
<g data-piece="skin-hi" data-color-token="skin.hi" data-color-label="Skin Hi" fill="#85553a"></g>
<g data-piece="skin-sh" data-color-token="skin.sh" data-color-label="Skin Sh" fill="#5a3620"></g>
</g>
<g data-layer="neck" data-style="rounded">
<g data-piece="skin-highlight" data-color-token="skin.deep" data-color-label="Skin Deep" fill="#472a18">
<rect x="23" y="44" width="18" height="2"/>
<rect x="24" y="45" width="15" height="1"/>
<rect x="25" y="45" width="12" height="2"/>
</g>
<g data-piece="shadow" data-color-token="skin.sh" data-color-label="shadow" fill="#5a3620">
<rect x="23" y="45" width="1" height="1"/>
<rect x="24" y="45" width="1" height="1"/>
<rect x="25" y="45" width="1" height="1"/>
<rect x="26" y="45" width="1" height="1"/>
<rect x="27" y="45" width="1" height="1"/>
<rect x="28" y="45" width="1" height="1"/>
<rect x="29" y="45" width="1" height="1"/>
<rect x="30" y="45" width="1" height="1"/>
<rect x="31" y="45" width="1" height="1"/>
<rect x="32" y="45" width="1" height="1"/>
<rect x="33" y="45" width="1" height="1"/>
<rect x="34" y="45" width="1" height="1"/>
<rect x="35" y="45" width="1" height="1"/>
<rect x="36" y="45" width="1" height="1"/>
<rect x="37" y="45" width="1" height="1"/>
<rect x="38" y="45" width="1" height="1"/>
<rect x="39" y="45" width="1" height="1"/>
<rect x="40" y="45" width="1" height="1"/>
<rect x="36" y="46" width="1" height="1"/>
<rect x="35" y="46" width="1" height="1"/>
<rect x="34" y="46" width="1" height="1"/>
<rect x="33" y="46" width="1" height="1"/>
<rect x="32" y="46" width="1" height="1"/>
<rect x="31" y="46" width="1" height="1"/>
<rect x="30" y="46" width="1" height="1"/>
<rect x="29" y="46" width="1" height="1"/>
<rect x="28" y="46" width="1" height="1"/>
<rect x="27" y="46" width="1" height="1"/>
<rect x="26" y="46" width="1" height="1"/>
<rect x="25" y="46" width="1" height="1"/>
</g>
</g>
<g data-layer="hair" data-style="afro" data-color="dark_brown">
<g data-piece="hair-base" data-color-token="hair.base" data-color-label="Hair Base" fill="#3a2817">
<rect x="16" y="3" width="32" height="5"/>
<rect x="13" y="9" width="38" height="4"/>
<rect x="13" y="16" width="3" height="6"/>
<rect x="48" y="16" width="3" height="6"/>
<rect x="15" y="15" width="34" height="4"/>
<rect x="15" y="17" width="1" height="1"/>
<rect x="15" y="17" width="34" height="3"/>
<rect x="13" y="21" width="1" height="1"/>
<rect x="16" y="19" width="2" height="5"/>
<rect x="45" y="18" width="2" height="2"/>
<rect x="46" y="17" width="2" height="6"/>
<rect x="46" y="21" width="2" height="3"/>
<rect x="18" y="19" width="2" height="3"/>
<rect x="43" y="19" width="3" height="3"/>
</g>
<g data-piece="hair-hi" data-color-token="hair.hi" data-color-label="Hair Hi" fill="#4a3320">
<rect x="14" y="6" width="36" height="4"/>
<rect x="13" y="13" width="38" height="3"/>
</g>
</g>
<g data-layer="headband" data-style="none">
</g>
</g>
</g>
</svg>