<svg width="500" height="500" viewBox="70 -30 500 500" xmlns="http://www.w3.org/2000/svg">
<g shape-rendering="crispEdges">
<g transform="scale(10)">
<g data-layer="hair" data-style="curly" data-color="brown">
<rect x="16" y="5" width="4" height="4" fill="#6e4d2e"/>
<rect x="20" y="5" width="4" height="4" fill="#5a3d22"/>
<rect x="24" y="5" width="4" height="4" fill="#6e4d2e"/>
<rect x="28" y="5" width="4" height="4" fill="#5a3d22"/>
<rect x="32" y="5" width="4" height="4" fill="#6e4d2e"/>
<rect x="36" y="5" width="4" height="4" fill="#5a3d22"/>
<rect x="40" y="5" width="4" height="4" fill="#6e4d2e"/>
<rect x="44" y="5" width="4" height="4" fill="#5a3d22"/>
<rect x="15" y="9" width="34" height="4" fill="#5a3d22"/>
<rect x="14" y="13" width="36" height="3" fill="#6e4d2e"/>
<rect x="14" y="16" width="2" height="5" fill="#5a3d22"/>
<rect x="48" y="16" width="2" height="5" fill="#5a3d22"/>
</g>
<g data-layer="face" data-skin="tan" data-jaw="2">
<rect x="17" y="15" width="30" height="20" fill="#cda07a"/>
<rect x="15" y="18" width="2" height="13" fill="#cda07a"/>
<rect x="47" y="18" width="2" height="13" fill="#cda07a"/>
<rect x="17" y="35" width="30" height="7" fill="#cda07a"/>
<rect x="20" y="42" width="24" height="3" fill="#b88863"/>
<rect x="17" y="15" width="30" height="2" fill="#dcb591"/>
<rect x="19" y="17" width="4" height="2" fill="#dcb591"/>
<rect x="41" y="17" width="4" height="2" fill="#dcb591"/>
<rect x="15" y="20" width="2" height="8" fill="#b88863"/>
<rect x="47" y="20" width="2" height="8" fill="#b88863"/>
<rect x="17" y="33" width="4" height="4" fill="#b88863"/>
<rect x="43" y="33" width="4" height="4" fill="#b88863"/>
<rect x="19" y="29" width="4" height="3" fill="#dcb591"/>
<rect x="41" y="29" width="4" height="3" fill="#dcb591"/>
</g>
<g data-layer="stubble" data-enabled="true">
<rect x="18" y="38" width="28" height="2" fill="#b88863"/>
<rect x="22" y="40" width="20" height="2" fill="#9c7350"/>
</g>
<g data-layer="headband" data-style="none">
</g>
<g data-layer="eyebrows" data-thickness="2" data-angle="down" data-color="brown">
<rect x="19" y="21" width="9" height="2" fill="#46301a"/>
<rect x="36" y="21" width="9" height="2" fill="#46301a"/>
<rect x="25" y="20" width="3" height="1" fill="#46301a"/>
<rect x="36" y="20" width="3" height="1" fill="#46301a"/>
</g>
<g data-layer="eyes" data-shape="round" data-color="brown">
<rect x="20" y="24" width="8" height="4" fill="#ffffff"/>
<rect x="36" y="24" width="8" height="4" fill="#ffffff"/>
<rect x="23" y="24" width="3" height="4" fill="#5a3a26"/>
<rect x="38" y="24" width="3" height="4" fill="#5a3a26"/>
<rect x="24" y="24" width="2" height="2" fill="#1c1208"/>
<rect x="39" y="24" width="2" height="2" fill="#1c1208"/>
<rect x="24" y="24" width="1" height="1" fill="#ffffff"/>
<rect x="39" y="24" width="1" height="1" fill="#ffffff"/>
<rect x="20" y="28" width="8" height="1" fill="#b88863"/>
<rect x="36" y="28" width="8" height="1" fill="#b88863"/>
</g>
<g data-layer="nose" data-shape="narrow">
<rect x="31" y="27" width="2" height="7" fill="#b88863"/>
<rect x="30" y="33" width="4" height="1" fill="#9c7350"/>
<rect x="33" y="28" width="1" height="5" fill="#dcb591"/>
<rect x="29" y="34" width="2" height="1" fill="#9c7350"/>
<rect x="33" y="34" width="2" height="1" fill="#9c7350"/>
</g>
<g data-layer="mouth" data-fullness="full" data-color="warm">
<rect x="27" y="38" width="10" height="1" fill="#8a4a3c"/>
<rect x="28" y="39" width="8" height="2" fill="#8a4a3c"/>
<rect x="29" y="37" width="6" height="1" fill="#dcb591"/>
<rect x="27" y="40" width="10" height="2" fill="#b88863"/>
</g>
<g data-layer="neck">
<rect x="24" y="45" width="16" height="3" fill="#b88863"/>
<rect x="24" y="45" width="16" height="1" fill="#9c7350"/>
<rect x="26" y="45" width="12" height="1" fill="#9c7350"/>
</g>
</g>
</g>
</svg>