<svg width="500" height="500" viewBox="70 -30 500 500" xmlns="http://www.w3.org/2000/svg">
<g shape-rendering="crispEdges">
<g transform="scale(10)">
<g data-layer="face" data-skin="fair" data-jaw="1">
<g data-piece="skin-base" data-color-token="skin.base" data-color-label="Skin Base" fill="#e8c1a0">
<rect x="17" y="15" width="30" height="20"/>
<rect x="15" y="18" width="2" height="13"/>
<rect x="47" y="18" width="2" height="13"/>
<rect x="17" y="35" width="30" height="7"/>
</g>
<g data-piece="skin-sh" data-color-token="skin.sh" data-color-label="Skin Sh" fill="#d2a380">
<rect x="20" y="42" width="24" height="3"/>
<rect x="15" y="20" width="2" height="8"/>
<rect x="47" y="20" width="2" height="8"/>
<rect x="17" y="33" width="4" height="4"/>
<rect x="43" y="33" width="4" height="4"/>
</g>
<g data-piece="skin-hi" data-color-token="skin.hi" data-color-label="Skin Hi" fill="#f2d2b6">
<rect x="17" y="15" width="30" height="2"/>
<rect x="19" y="17" width="4" height="2"/>
<rect x="41" y="17" width="4" height="2"/>
<rect x="19" y="29" width="4" height="3"/>
<rect x="41" y="29" width="4" height="3"/>
<rect x="20" y="13" width="23" height="2"/>
</g>
</g>
<g data-layer="eyebrows" data-thickness="1" data-angle="down" data-color="black">
<rect x="20" y="21" width="8" height="1" fill="#1c140e"/>
<rect x="36" y="21" width="8" height="1" fill="#1c140e"/>
<rect x="25" y="20" width="3" height="1" fill="#1c140e"/>
<rect x="36" y="20" width="3" height="1" fill="#1c140e"/>
</g>
<g data-layer="eyes" data-shape="slanted" data-color="blue">
<g data-piece="base" data-color="#dedddf" data-color-label="base" transform="translate(1 0)" fill="#dedddf">
<rect x="23" y="24" width="1" height="1"/>
<rect x="24" y="24" width="1" height="1"/>
<rect x="25" y="24" width="1" height="1"/>
<rect x="26" y="24" width="1" height="1"/>
<rect x="21" y="25" width="1" height="1"/>
<rect x="22" y="25" width="1" height="1"/>
<rect x="23" y="25" width="1" height="1"/>
<rect x="24" y="25" width="1" height="1"/>
<rect x="25" y="25" width="1" height="1"/>
<rect x="26" y="25" width="1" height="1"/>
<rect x="27" y="25" width="1" height="1"/>
<rect x="28" y="25" width="1" height="1"/>
<rect x="21" y="25" width="1" height="1"/>
<rect x="22" y="25" width="1" height="1"/>
<rect x="23" y="25" width="1" height="1"/>
<rect x="24" y="25" width="1" height="1"/>
<rect x="25" y="25" width="1" height="1"/>
<rect x="26" y="25" width="1" height="1"/>
<rect x="27" y="25" width="1" height="1"/>
<rect x="28" y="25" width="1" height="1"/>
<rect x="21" y="25" width="1" height="1"/>
<rect x="22" y="25" width="1" height="1"/>
<rect x="23" y="25" width="1" height="1"/>
<rect x="24" y="25" width="1" height="1"/>
<rect x="25" y="25" width="1" height="1"/>
<rect x="26" y="25" width="1" height="1"/>
<rect x="27" y="25" width="1" height="1"/>
<rect x="28" y="25" width="1" height="1"/>
<rect x="23" y="26" width="1" height="1"/>
<rect x="24" y="26" width="1" height="1"/>
<rect x="25" y="26" width="1" height="1"/>
<rect x="26" y="26" width="1" height="1"/>
<rect x="33" y="24" width="1" height="1"/>
<rect x="34" y="24" width="1" height="1"/>
<rect x="35" y="24" width="1" height="1"/>
<rect x="36" y="24" width="1" height="1"/>
<rect x="37" y="24" width="1" height="1"/>
<rect x="31" y="25" width="1" height="1"/>
<rect x="32" y="25" width="1" height="1"/>
<rect x="33" y="25" width="1" height="1"/>
<rect x="34" y="25" width="1" height="1"/>
<rect x="35" y="25" width="1" height="1"/>
<rect x="36" y="25" width="1" height="1"/>
<rect x="37" y="25" width="1" height="1"/>
<rect x="38" y="25" width="1" height="1"/>
<rect x="39" y="25" width="1" height="1"/>
<rect x="31" y="25" width="1" height="1"/>
<rect x="32" y="25" width="1" height="1"/>
<rect x="33" y="25" width="1" height="1"/>
<rect x="34" y="25" width="1" height="1"/>
<rect x="35" y="25" width="1" height="1"/>
<rect x="36" y="25" width="1" height="1"/>
<rect x="37" y="25" width="1" height="1"/>
<rect x="38" y="25" width="1" height="1"/>
<rect x="39" y="25" width="1" height="1"/>
<rect x="31" y="25" width="1" height="1"/>
<rect x="32" y="25" width="1" height="1"/>
<rect x="33" y="25" width="1" height="1"/>
<rect x="34" y="25" width="1" height="1"/>
<rect x="35" y="25" width="1" height="1"/>
<rect x="36" y="25" width="1" height="1"/>
<rect x="37" y="25" width="1" height="1"/>
<rect x="38" y="25" width="1" height="1"/>
<rect x="39" y="25" width="1" height="1"/>
<rect x="33" y="26" width="1" height="1"/>
<rect x="34" y="26" width="1" height="1"/>
<rect x="35" y="26" width="1" height="1"/>
<rect x="36" y="26" width="1" height="1"/>
<rect x="37" y="26" width="1" height="1"/>
<rect x="22" y="26" width="1" height="1"/>
<rect x="27" y="26" width="1" height="1"/>
<rect x="38" y="26" width="1" height="1"/>
<rect x="32" y="26" width="1" height="1"/>
</g>
<g data-piece="eyelids" data-color-token="skin.hi" data-color-label="eyelids" transform="translate(0 1)" fill="#f2d2b6">
<rect x="23" y="23" width="1" height="1"/>
<rect x="24" y="23" width="1" height="1"/>
<rect x="25" y="23" width="1" height="1"/>
<rect x="26" y="23" width="1" height="1"/>
<rect x="27" y="23" width="1" height="1"/>
<rect x="28" y="23" width="1" height="1"/>
<rect x="33" y="23" width="1" height="1"/>
<rect x="34" y="23" width="1" height="1"/>
<rect x="35" y="23" width="1" height="1"/>
<rect x="36" y="23" width="1" height="1"/>
<rect x="37" y="23" width="1" height="1"/>
<rect x="38" y="23" width="1" height="1"/>
<rect x="39" y="23" width="1" height="1"/>
</g>
<g data-piece="pupils" data-color-token="eye.pupil" data-color-label="Iris" data-color-opacity="0.71" fill="#16263a">
<rect x="26" y="25" width="1" height="1"/>
<rect x="27" y="26" width="1" height="1"/>
<rect x="36" y="25" width="1" height="1"/>
<rect x="36" y="25" width="1" height="1"/>
<rect x="36" y="26" width="1" height="1"/>
<rect x="38" y="26" width="1" height="1"/>
<rect x="38" y="25" width="1" height="1"/>
<rect x="37" y="25" width="1" height="1"/>
<rect x="38" y="25" width="1" height="1"/>
<rect x="27" y="25" width="1" height="1"/>
<rect x="25" y="25" width="1" height="1"/>
<rect x="25" y="26" width="1" height="1"/>
</g>
</g>
<g data-layer="nose" data-shape="medium">
<rect x="31" y="27" width="2" height="6" fill="#d2a380"/>
<rect x="30" y="32" width="4" height="2" fill="#c99a76"/>
<rect x="33" y="28" width="1" height="4" fill="#f2d2b6"/>
<rect x="29" y="33" width="2" height="1" fill="#c99a76"/>
<rect x="33" y="33" width="2" height="1" fill="#c99a76"/>
</g>
<g data-layer="neck" data-style="pencil">
<g data-piece="skin-deep" data-color-token="skin.deep" data-color-label="Skin Deep" fill="#c99a76">
<rect x="28" y="46" width="7" height="1"/>
<rect x="34" y="45" width="1" height="1"/>
<rect x="33" y="45" width="1" height="1"/>
<rect x="32" y="45" width="1" height="1"/>
<rect x="31" y="45" width="1" height="1"/>
<rect x="30" y="45" width="1" height="1"/>
<rect x="29" y="45" width="1" height="1"/>
<rect x="28" y="45" width="1" height="1"/>
<rect x="34" y="46" width="1" height="1"/>
<rect x="35" y="46" width="1" height="1"/>
<rect x="27" y="46" width="1" height="1"/>
<rect x="23" y="45" width="1" height="1"/>
<rect x="24" y="45" width="1" height="1"/>
<rect x="25" y="45" width="1" height="1"/>
<rect x="26" y="45" width="1" height="1"/>
<rect x="27" y="45" width="1" height="1"/>
<rect x="39" y="45" width="1" height="1"/>
<rect x="38" y="45" width="1" height="1"/>
<rect x="37" y="45" width="1" height="1"/>
<rect x="35" y="45" width="1" height="1"/>
<rect x="36" y="45" width="1" height="1"/>
</g>
</g>
<g data-layer="stubble" data-style="none" data-enabled="false">
</g>
<g data-layer="mouth" data-fullness="full" data-color="warm">
<g data-piece="color-1" data-color="#8a4a3c" data-color-label="Color 1" fill="#8a4a3c">
<rect x="27" y="38" width="10" height="1"/>
</g>
<g data-piece="lip" data-color-token="lip" data-color-label="Lip" fill="#8a4a3c">
<rect x="28" y="39" width="8" height="2"/>
</g>
<g data-piece="skin-hi" data-color-token="skin.hi" data-color-label="Skin Hi" fill="#f2d2b6"></g>
<g data-piece="skin-sh" data-color-token="skin.sh" data-color-label="Skin Sh" fill="#d2a380"></g>
</g>
<g data-layer="hair" data-style="dreads" data-color="black">
<g data-piece="hair-base" data-color-token="hair.base" data-color-label="Hair Base" fill="#2a2018">
<rect x="33" y="12" width="1" height="1"/>
<rect x="32" y="12" width="1" height="1"/>
<rect x="31" y="12" width="1" height="1"/>
<rect x="30" y="12" width="1" height="1"/>
<rect x="29" y="12" width="1" height="1"/>
<rect x="28" y="12" width="1" height="1"/>
<rect x="27" y="12" width="1" height="1"/>
<rect x="26" y="12" width="1" height="1"/>
<rect x="30" y="11" width="1" height="1"/>
<rect x="31" y="11" width="1" height="1"/>
<rect x="32" y="11" width="1" height="1"/>
<rect x="33" y="10" width="1" height="1"/>
<rect x="32" y="10" width="1" height="1"/>
<rect x="31" y="10" width="1" height="1"/>
<rect x="30" y="10" width="1" height="1"/>
<rect x="29" y="11" width="1" height="1"/>
<rect x="28" y="11" width="1" height="1"/>
<rect x="27" y="11" width="1" height="1"/>
<rect x="26" y="11" width="1" height="1"/>
<rect x="25" y="11" width="1" height="1"/>
<rect x="24" y="11" width="1" height="1"/>
<rect x="23" y="11" width="1" height="1"/>
<rect x="23" y="12" width="1" height="1"/>
<rect x="22" y="12" width="1" height="1"/>
<rect x="24" y="12" width="1" height="1"/>
<rect x="21" y="13" width="1" height="1"/>
<rect x="22" y="13" width="1" height="1"/>
<rect x="25" y="12" width="1" height="1"/>
<rect x="25" y="10" width="1" height="1"/>
<rect x="26" y="9" width="1" height="1"/>
<rect x="27" y="9" width="1" height="1"/>
<rect x="24" y="10" width="1" height="1"/>
<rect x="23" y="10" width="1" height="1"/>
<rect x="25" y="9" width="1" height="1"/>
<rect x="24" y="9" width="1" height="1"/>
<rect x="23" y="9" width="1" height="1"/>
<rect x="22" y="10" width="1" height="1"/>
<rect x="21" y="10" width="1" height="1"/>
<rect x="20" y="10" width="1" height="1"/>
<rect x="26" y="8" width="1" height="1"/>
<rect x="27" y="8" width="1" height="1"/>
<rect x="27" y="7" width="1" height="1"/>
<rect x="26" y="10" width="1" height="1"/>
<rect x="27" y="10" width="1" height="1"/>
<rect x="28" y="9" width="1" height="1"/>
<rect x="29" y="9" width="1" height="1"/>
<rect x="30" y="9" width="1" height="1"/>
<rect x="31" y="9" width="1" height="1"/>
<rect x="34" y="10" width="1" height="1"/>
<rect x="33" y="11" width="1" height="1"/>
<rect x="34" y="11" width="1" height="1"/>
<rect x="35" y="10" width="1" height="1"/>
<rect x="36" y="10" width="1" height="1"/>
<rect x="37" y="10" width="1" height="1"/>
<rect x="36" y="11" width="1" height="1"/>
<rect x="35" y="11" width="1" height="1"/>
<rect x="34" y="12" width="1" height="1"/>
<rect x="37" y="11" width="1" height="1"/>
<rect x="38" y="10" width="1" height="1"/>
<rect x="35" y="12" width="1" height="1"/>
<rect x="38" y="11" width="1" height="1"/>
<rect x="36" y="12" width="1" height="1"/>
<rect x="37" y="12" width="1" height="1"/>
<rect x="39" y="11" width="1" height="1"/>
<rect x="40" y="10" width="1" height="1"/>
<rect x="34" y="13" width="1" height="1"/>
<rect x="35" y="13" width="1" height="1"/>
<rect x="39" y="10" width="1" height="1"/>
<rect x="40" y="9" width="1" height="1"/>
<rect x="41" y="9" width="1" height="1"/>
<rect x="42" y="9" width="1" height="1"/>
<rect x="43" y="9" width="1" height="1"/>
<rect x="42" y="8" width="1" height="1"/>
<rect x="43" y="8" width="1" height="1"/>
<rect x="44" y="7" width="1" height="1"/>
<rect x="44" y="8" width="1" height="1"/>
<rect x="45" y="8" width="1" height="1"/>
<rect x="46" y="8" width="1" height="1"/>
<rect x="46" y="7" width="1" height="1"/>
<rect x="47" y="7" width="1" height="1"/>
<rect x="47" y="6" width="1" height="1"/>
<rect x="46" y="6" width="1" height="1"/>
<rect x="45" y="7" width="1" height="1"/>
<rect x="42" y="10" width="1" height="1"/>
<rect x="44" y="9" width="1" height="1"/>
<rect x="43" y="10" width="1" height="1"/>
<rect x="42" y="11" width="1" height="1"/>
<rect x="43" y="11" width="1" height="1"/>
<rect x="44" y="10" width="1" height="1"/>
<rect x="42" y="12" width="1" height="1"/>
<rect x="43" y="12" width="1" height="1"/>
<rect x="44" y="11" width="1" height="1"/>
<rect x="43" y="13" width="1" height="1"/>
<rect x="42" y="14" width="1" height="1"/>
<rect x="42" y="15" width="1" height="1"/>
<rect x="43" y="15" width="1" height="1"/>
<rect x="44" y="14" width="1" height="1"/>
<rect x="44" y="13" width="1" height="1"/>
<rect x="44" y="12" width="1" height="1"/>
<rect x="43" y="14" width="1" height="1"/>
<rect x="42" y="13" width="1" height="1"/>
<rect x="41" y="13" width="1" height="1"/>
<rect x="40" y="13" width="1" height="1"/>
<rect x="41" y="14" width="1" height="1"/>
<rect x="40" y="14" width="1" height="1"/>
<rect x="40" y="15" width="1" height="1"/>
<rect x="41" y="15" width="1" height="1"/>
<rect x="39" y="14" width="1" height="1"/>
<rect x="39" y="15" width="1" height="1"/>
<rect x="43" y="16" width="1" height="1"/>
<rect x="43" y="17" width="1" height="1"/>
<rect x="43" y="18" width="1" height="1"/>
<rect x="44" y="18" width="1" height="1"/>
<rect x="42" y="16" width="1" height="1"/>
<rect x="44" y="16" width="1" height="1"/>
<rect x="44" y="17" width="1" height="1"/>
<rect x="42" y="17" width="1" height="1"/>
<rect x="42" y="18" width="1" height="1"/>
<rect x="43" y="19" width="1" height="1"/>
<rect x="44" y="19" width="1" height="1"/>
<rect x="44" y="20" width="1" height="1"/>
<rect x="45" y="20" width="1" height="1"/>
<rect x="45" y="19" width="1" height="1"/>
<rect x="46" y="20" width="1" height="1"/>
<rect x="46" y="21" width="1" height="1"/>
<rect x="46" y="22" width="1" height="1"/>
<rect x="47" y="22" width="1" height="1"/>
<rect x="47" y="23" width="1" height="1"/>
<rect x="46" y="23" width="1" height="1"/>
<rect x="47" y="24" width="1" height="1"/>
<rect x="49" y="21" width="1" height="1"/>
<rect x="49" y="22" width="1" height="1"/>
<rect x="49" y="23" width="1" height="1"/>
<rect x="49" y="24" width="1" height="1"/>
<rect x="49" y="25" width="1" height="1"/>
<rect x="49" y="26" width="1" height="1"/>
<rect x="49" y="27" width="1" height="1"/>
<rect x="49" y="28" width="1" height="1"/>
<rect x="49" y="29" width="1" height="1"/>
<rect x="49" y="30" width="1" height="1"/>
<rect x="49" y="20" width="1" height="1"/>
<rect x="50" y="20" width="1" height="1"/>
<rect x="50" y="19" width="1" height="1"/>
<rect x="51" y="19" width="1" height="1"/>
<rect x="51" y="20" width="1" height="1"/>
<rect x="51" y="21" width="1" height="1"/>
<rect x="48" y="17" width="1" height="1"/>
<rect x="48" y="18" width="1" height="1"/>
<rect x="48" y="19" width="1" height="1"/>
<rect x="48" y="16" width="1" height="1"/>
<rect x="48" y="11" width="1" height="1"/>
<rect x="48" y="12" width="1" height="1"/>
<rect x="48" y="13" width="1" height="1"/>
<rect x="49" y="14" width="1" height="1"/>
<rect x="49" y="13" width="1" height="1"/>
<rect x="49" y="12" width="1" height="1"/>
<rect x="49" y="11" width="1" height="1"/>
<rect x="50" y="12" width="1" height="1"/>
<rect x="51" y="12" width="1" height="1"/>
<rect x="51" y="13" width="1" height="1"/>
<rect x="51" y="14" width="1" height="1"/>
<rect x="52" y="14" width="1" height="1"/>
<rect x="51" y="7" width="1" height="1"/>
<rect x="52" y="7" width="1" height="1"/>
<rect x="52" y="8" width="1" height="1"/>
<rect x="51" y="8" width="1" height="1"/>
<rect x="50" y="8" width="1" height="1"/>
<rect x="45" y="5" width="1" height="1"/>
<rect x="45" y="4" width="1" height="1"/>
<rect x="40" y="6" width="1" height="1"/>
<rect x="39" y="5" width="1" height="1"/>
<rect x="38" y="5" width="1" height="1"/>
<rect x="37" y="5" width="1" height="1"/>
<rect x="36" y="5" width="1" height="1"/>
<rect x="35" y="5" width="1" height="1"/>
<rect x="35" y="6" width="1" height="1"/>
<rect x="36" y="6" width="1" height="1"/>
<rect x="37" y="6" width="1" height="1"/>
<rect x="36" y="4" width="1" height="1"/>
<rect x="33" y="5" width="1" height="1"/>
<rect x="34" y="5" width="1" height="1"/>
<rect x="38" y="4" width="1" height="1"/>
<rect x="37" y="4" width="1" height="1"/>
<rect x="37" y="3" width="1" height="1"/>
<rect x="38" y="3" width="1" height="1"/>
<rect x="39" y="3" width="1" height="1"/>
<rect x="40" y="2" width="1" height="1"/>
<rect x="38" y="2" width="1" height="1"/>
<rect x="39" y="2" width="1" height="1"/>
<rect x="40" y="3" width="1" height="1"/>
<rect x="35" y="1" width="1" height="1"/>
<rect x="34" y="1" width="1" height="1"/>
<rect x="33" y="2" width="1" height="1"/>
<rect x="33" y="1" width="1" height="1"/>
<rect x="32" y="1" width="1" height="1"/>
<rect x="31" y="1" width="1" height="1"/>
<rect x="30" y="2" width="1" height="1"/>
<rect x="30" y="3" width="1" height="1"/>
<rect x="32" y="3" width="1" height="1"/>
<rect x="32" y="2" width="1" height="1"/>
<rect x="31" y="2" width="1" height="1"/>
<rect x="29" y="2" width="1" height="1"/>
<rect x="28" y="2" width="1" height="1"/>
<rect x="27" y="3" width="1" height="1"/>
<rect x="26" y="4" width="1" height="1"/>
<rect x="26" y="2" width="1" height="1"/>
<rect x="25" y="2" width="1" height="1"/>
<rect x="24" y="3" width="1" height="1"/>
<rect x="23" y="1" width="1" height="1"/>
<rect x="22" y="1" width="1" height="1"/>
<rect x="21" y="1" width="1" height="1"/>
<rect x="20" y="2" width="1" height="1"/>
<rect x="20" y="1" width="1" height="1"/>
<rect x="21" y="3" width="1" height="1"/>
<rect x="21" y="4" width="1" height="1"/>
<rect x="21" y="5" width="1" height="1"/>
<rect x="21" y="6" width="1" height="1"/>
<rect x="20" y="3" width="1" height="1"/>
<rect x="19" y="3" width="1" height="1"/>
<rect x="20" y="4" width="1" height="1"/>
<rect x="20" y="5" width="1" height="1"/>
<rect x="20" y="6" width="1" height="1"/>
<rect x="19" y="6" width="1" height="1"/>
<rect x="18" y="7" width="1" height="1"/>
<rect x="18" y="8" width="1" height="1"/>
<rect x="18" y="9" width="1" height="1"/>
<rect x="18" y="10" width="1" height="1"/>
<rect x="18" y="11" width="1" height="1"/>
<rect x="18" y="12" width="1" height="1"/>
<rect x="19" y="7" width="1" height="1"/>
<rect x="19" y="8" width="1" height="1"/>
<rect x="19" y="9" width="1" height="1"/>
<rect x="19" y="10" width="1" height="1"/>
<rect x="17" y="7" width="1" height="1"/>
<rect x="16" y="7" width="1" height="1"/>
<rect x="15" y="7" width="1" height="1"/>
<rect x="14" y="7" width="1" height="1"/>
<rect x="13" y="7" width="1" height="1"/>
<rect x="13" y="8" width="1" height="1"/>
<rect x="12" y="8" width="1" height="1"/>
<rect x="13" y="9" width="1" height="1"/>
<rect x="11" y="8" width="1" height="1"/>
<rect x="10" y="8" width="1" height="1"/>
<rect x="10" y="9" width="1" height="1"/>
<rect x="9" y="9" width="1" height="1"/>
<rect x="9" y="10" width="1" height="1"/>
<rect x="10" y="10" width="1" height="1"/>
<rect x="11" y="9" width="1" height="1"/>
<rect x="9" y="4" width="1" height="1"/>
<rect x="9" y="5" width="1" height="1"/>
<rect x="12" y="13" width="1" height="1"/>
<rect x="11" y="12" width="1" height="1"/>
<rect x="10" y="12" width="1" height="1"/>
<rect x="12" y="12" width="1" height="1"/>
<rect x="13" y="12" width="1" height="1"/>
<rect x="8" y="10" width="1" height="1"/>
<rect x="16" y="13" width="1" height="1"/>
<rect x="17" y="13" width="1" height="1"/>
<rect x="18" y="13" width="1" height="1"/>
<rect x="13" y="13" width="1" height="1"/>
<rect x="14" y="14" width="1" height="1"/>
<rect x="14" y="13" width="1" height="1"/>
<rect x="14" y="15" width="1" height="1"/>
<rect x="14" y="16" width="1" height="1"/>
<rect x="14" y="17" width="1" height="1"/>
<rect x="16" y="18" width="1" height="1"/>
<rect x="16" y="19" width="1" height="1"/>
<rect x="16" y="20" width="1" height="1"/>
<rect x="16" y="21" width="1" height="1"/>
<rect x="16" y="24" width="1" height="1"/>
<rect x="16" y="25" width="1" height="1"/>
<rect x="16" y="26" width="1" height="1"/>
<rect x="17" y="26" width="1" height="1"/>
<rect x="17" y="27" width="1" height="1"/>
<rect x="17" y="28" width="1" height="1"/>
<rect x="18" y="26" width="1" height="1"/>
<rect x="18" y="25" width="1" height="1"/>
<rect x="18" y="24" width="1" height="1"/>
<rect x="18" y="23" width="1" height="1"/>
<rect x="18" y="22" width="1" height="1"/>
<rect x="18" y="21" width="1" height="1"/>
<rect x="19" y="18" width="1" height="1"/>
<rect x="18" y="18" width="1" height="1"/>
<rect x="19" y="16" width="1" height="1"/>
<rect x="19" y="15" width="1" height="1"/>
<rect x="13" y="27" width="1" height="1"/>
<rect x="13" y="28" width="1" height="1"/>
<rect x="13" y="29" width="1" height="1"/>
<rect x="13" y="26" width="1" height="1"/>
<rect x="13" y="25" width="1" height="1"/>
<rect x="13" y="24" width="1" height="1"/>
<rect x="13" y="23" width="1" height="1"/>
<rect x="13" y="22" width="1" height="1"/>
<rect x="13" y="21" width="1" height="1"/>
<rect x="17" y="31" width="1" height="1"/>
<rect x="16" y="31" width="1" height="1"/>
<rect x="16" y="32" width="1" height="1"/>
<rect x="15" y="32" width="1" height="1"/>
<rect x="15" y="33" width="1" height="1"/>
</g>
<g data-piece="hair-highlight" data-color-token="hair.hi" data-color-label="Hair Highlight" fill="#3a2e22">
<rect x="20" y="14" width="1" height="1"/>
<rect x="22" y="15" width="1" height="1"/>
<rect x="21" y="15" width="1" height="1"/>
<rect x="20" y="15" width="1" height="1"/>
<rect x="20" y="16" width="1" height="1"/>
<rect x="19" y="16" width="1" height="1"/>
<rect x="20" y="17" width="1" height="1"/>
<rect x="19" y="17" width="1" height="1"/>
<rect x="19" y="18" width="1" height="1"/>
<rect x="18" y="19" width="1" height="1"/>
<rect x="19" y="19" width="1" height="1"/>
<rect x="19" y="20" width="1" height="1"/>
<rect x="18" y="20" width="1" height="1"/>
<rect x="18" y="21" width="1" height="1"/>
<rect x="17" y="21" width="1" height="1"/>
<rect x="17" y="22" width="1" height="1"/>
<rect x="17" y="23" width="1" height="1"/>
<rect x="16" y="23" width="1" height="1"/>
<rect x="16" y="22" width="1" height="1"/>
<rect x="15" y="23" width="1" height="1"/>
<rect x="15" y="24" width="1" height="1"/>
<rect x="15" y="25" width="1" height="1"/>
<rect x="14" y="26" width="1" height="1"/>
<rect x="15" y="26" width="1" height="1"/>
<rect x="15" y="27" width="1" height="1"/>
<rect x="15" y="28" width="1" height="1"/>
<rect x="14" y="29" width="1" height="1"/>
<rect x="15" y="29" width="1" height="1"/>
<rect x="15" y="30" width="1" height="1"/>
<rect x="15" y="31" width="1" height="1"/>
<rect x="15" y="32" width="1" height="1"/>
<rect x="14" y="32" width="1" height="1"/>
<rect x="14" y="33" width="1" height="1"/>
<rect x="14" y="34" width="1" height="1"/>
<rect x="15" y="34" width="1" height="1"/>
<rect x="15" y="35" width="1" height="1"/>
<rect x="15" y="36" width="1" height="1"/>
<rect x="14" y="36" width="1" height="1"/>
<rect x="14" y="35" width="1" height="1"/>
<rect x="14" y="31" width="1" height="1"/>
<rect x="13" y="31" width="1" height="1"/>
<rect x="13" y="30" width="1" height="1"/>
<rect x="14" y="30" width="1" height="1"/>
<rect x="14" y="28" width="1" height="1"/>
<rect x="14" y="27" width="1" height="1"/>
<rect x="14" y="25" width="1" height="1"/>
<rect x="14" y="24" width="1" height="1"/>
<rect x="15" y="22" width="1" height="1"/>
<rect x="15" y="21" width="1" height="1"/>
<rect x="16" y="21" width="1" height="1"/>
<rect x="16" y="20" width="1" height="1"/>
<rect x="17" y="20" width="1" height="1"/>
<rect x="17" y="19" width="1" height="1"/>
<rect x="17" y="18" width="1" height="1"/>
<rect x="17" y="17" width="1" height="1"/>
<rect x="18" y="17" width="1" height="1"/>
<rect x="18" y="16" width="1" height="1"/>
<rect x="18" y="15" width="1" height="1"/>
<rect x="17" y="15" width="1" height="1"/>
<rect x="16" y="15" width="1" height="1"/>
<rect x="15" y="15" width="1" height="1"/>
<rect x="15" y="16" width="1" height="1"/>
<rect x="15" y="17" width="1" height="1"/>
<rect x="14" y="17" width="1" height="1"/>
<rect x="14" y="18" width="1" height="1"/>
<rect x="13" y="18" width="1" height="1"/>
<rect x="13" y="19" width="1" height="1"/>
<rect x="13" y="20" width="1" height="1"/>
<rect x="14" y="21" width="1" height="1"/>
<rect x="14" y="22" width="1" height="1"/>
<rect x="14" y="23" width="1" height="1"/>
<rect x="16" y="27" width="1" height="1"/>
<rect x="16" y="28" width="1" height="1"/>
<rect x="16" y="29" width="1" height="1"/>
<rect x="16" y="30" width="1" height="1"/>
<rect x="17" y="31" width="1" height="1"/>
<rect x="17" y="32" width="1" height="1"/>
<rect x="17" y="33" width="1" height="1"/>
<rect x="17" y="34" width="1" height="1"/>
<rect x="18" y="34" width="1" height="1"/>
<rect x="18" y="35" width="1" height="1"/>
<rect x="19" y="35" width="1" height="1"/>
<rect x="19" y="34" width="1" height="1"/>
<rect x="19" y="33" width="1" height="1"/>
<rect x="18" y="33" width="1" height="1"/>
<rect x="18" y="32" width="1" height="1"/>
<rect x="17" y="30" width="1" height="1"/>
<rect x="17" y="29" width="1" height="1"/>
<rect x="17" y="28" width="1" height="1"/>
<rect x="16" y="26" width="1" height="1"/>
<rect x="16" y="25" width="1" height="1"/>
<rect x="17" y="25" width="1" height="1"/>
<rect x="17" y="24" width="1" height="1"/>
<rect x="15" y="20" width="1" height="1"/>
<rect x="15" y="19" width="1" height="1"/>
<rect x="15" y="18" width="1" height="1"/>
<rect x="16" y="16" width="1" height="1"/>
<rect x="17" y="16" width="1" height="1"/>
<rect x="14" y="19" width="1" height="1"/>
<rect x="14" y="20" width="1" height="1"/>
<rect x="16" y="17" width="1" height="1"/>
<rect x="16" y="14" width="1" height="1"/>
<rect x="17" y="14" width="1" height="1"/>
<rect x="18" y="14" width="1" height="1"/>
<rect x="19" y="14" width="1" height="1"/>
<rect x="19" y="13" width="1" height="1"/>
<rect x="18" y="13" width="1" height="1"/>
<rect x="20" y="13" width="1" height="1"/>
<rect x="21" y="13" width="1" height="1"/>
<rect x="22" y="13" width="1" height="1"/>
<rect x="22" y="12" width="1" height="1"/>
<rect x="21" y="12" width="1" height="1"/>
<rect x="20" y="11" width="1" height="1"/>
<rect x="19" y="11" width="1" height="1"/>
<rect x="19" y="12" width="1" height="1"/>
<rect x="18" y="12" width="1" height="1"/>
<rect x="21" y="11" width="1" height="1"/>
<rect x="22" y="11" width="1" height="1"/>
<rect x="18" y="11" width="1" height="1"/>
<rect x="17" y="11" width="1" height="1"/>
<rect x="17" y="12" width="1" height="1"/>
<rect x="16" y="12" width="1" height="1"/>
<rect x="16" y="13" width="1" height="1"/>
<rect x="15" y="14" width="1" height="1"/>
<rect x="15" y="13" width="1" height="1"/>
<rect x="15" y="12" width="1" height="1"/>
<rect x="16" y="11" width="1" height="1"/>
<rect x="16" y="10" width="1" height="1"/>
<rect x="17" y="10" width="1" height="1"/>
<rect x="17" y="9" width="1" height="1"/>
<rect x="18" y="9" width="1" height="1"/>
<rect x="18" y="8" width="1" height="1"/>
<rect x="18" y="7" width="1" height="1"/>
<rect x="18" y="6" width="1" height="1"/>
<rect x="17" y="6" width="1" height="1"/>
<rect x="16" y="6" width="1" height="1"/>
<rect x="15" y="6" width="1" height="1"/>
<rect x="14" y="6" width="1" height="1"/>
<rect x="13" y="6" width="1" height="1"/>
<rect x="12" y="6" width="1" height="1"/>
<rect x="12" y="5" width="1" height="1"/>
<rect x="11" y="5" width="1" height="1"/>
<rect x="11" y="6" width="1" height="1"/>
<rect x="10" y="6" width="1" height="1"/>
<rect x="10" y="5" width="1" height="1"/>
<rect x="9" y="5" width="1" height="1"/>
<rect x="10" y="4" width="1" height="1"/>
<rect x="10" y="3" width="1" height="1"/>
<rect x="10" y="2" width="1" height="1"/>
<rect x="9" y="2" width="1" height="1"/>
<rect x="8" y="2" width="1" height="1"/>
<rect x="7" y="2" width="1" height="1"/>
<rect x="7" y="3" width="1" height="1"/>
<rect x="7" y="4" width="1" height="1"/>
<rect x="8" y="3" width="1" height="1"/>
<rect x="9" y="3" width="1" height="1"/>
<rect x="11" y="4" width="1" height="1"/>
<rect x="11" y="7" width="1" height="1"/>
<rect x="12" y="7" width="1" height="1"/>
<rect x="13" y="7" width="1" height="1"/>
<rect x="14" y="8" width="1" height="1"/>
<rect x="15" y="8" width="1" height="1"/>
<rect x="16" y="8" width="1" height="1"/>
<rect x="17" y="8" width="1" height="1"/>
<rect x="18" y="10" width="1" height="1"/>
<rect x="16" y="9" width="1" height="1"/>
<rect x="15" y="9" width="1" height="1"/>
<rect x="14" y="9" width="1" height="1"/>
<rect x="13" y="9" width="1" height="1"/>
<rect x="13" y="10" width="1" height="1"/>
<rect x="12" y="10" width="1" height="1"/>
<rect x="12" y="9" width="1" height="1"/>
<rect x="11" y="9" width="1" height="1"/>
<rect x="11" y="10" width="1" height="1"/>
<rect x="10" y="10" width="1" height="1"/>
<rect x="9" y="10" width="1" height="1"/>
<rect x="9" y="9" width="1" height="1"/>
<rect x="8" y="9" width="1" height="1"/>
<rect x="7" y="9" width="1" height="1"/>
<rect x="7" y="8" width="1" height="1"/>
<rect x="6" y="8" width="1" height="1"/>
<rect x="6" y="9" width="1" height="1"/>
<rect x="9" y="8" width="1" height="1"/>
<rect x="10" y="8" width="1" height="1"/>
<rect x="10" y="7" width="1" height="1"/>
<rect x="13" y="8" width="1" height="1"/>
<rect x="15" y="10" width="1" height="1"/>
<rect x="14" y="11" width="1" height="1"/>
<rect x="13" y="11" width="1" height="1"/>
<rect x="12" y="11" width="1" height="1"/>
<rect x="11" y="11" width="1" height="1"/>
<rect x="10" y="11" width="1" height="1"/>
<rect x="9" y="11" width="1" height="1"/>
<rect x="9" y="12" width="1" height="1"/>
<rect x="8" y="12" width="1" height="1"/>
<rect x="7" y="12" width="1" height="1"/>
<rect x="6" y="12" width="1" height="1"/>
<rect x="5" y="12" width="1" height="1"/>
<rect x="5" y="13" width="1" height="1"/>
<rect x="6" y="13" width="1" height="1"/>
<rect x="7" y="13" width="1" height="1"/>
<rect x="14" y="10" width="1" height="1"/>
<rect x="15" y="11" width="1" height="1"/>
<rect x="14" y="12" width="1" height="1"/>
<rect x="13" y="12" width="1" height="1"/>
<rect x="12" y="13" width="1" height="1"/>
<rect x="12" y="14" width="1" height="1"/>
<rect x="11" y="14" width="1" height="1"/>
<rect x="11" y="15" width="1" height="1"/>
<rect x="10" y="15" width="1" height="1"/>
<rect x="10" y="16" width="1" height="1"/>
<rect x="9" y="17" width="1" height="1"/>
<rect x="8" y="17" width="1" height="1"/>
<rect x="8" y="18" width="1" height="1"/>
<rect x="7" y="18" width="1" height="1"/>
<rect x="6" y="18" width="1" height="1"/>
<rect x="6" y="19" width="1" height="1"/>
<rect x="8" y="16" width="1" height="1"/>
<rect x="9" y="16" width="1" height="1"/>
<rect x="13" y="13" width="1" height="1"/>
<rect x="20" y="12" width="1" height="1"/>
<rect x="19" y="10" width="1" height="1"/>
<rect x="19" y="8" width="1" height="1"/>
<rect x="20" y="8" width="1" height="1"/>
<rect x="21" y="8" width="1" height="1"/>
<rect x="21" y="7" width="1" height="1"/>
<rect x="22" y="7" width="1" height="1"/>
<rect x="22" y="6" width="1" height="1"/>
<rect x="22" y="5" width="1" height="1"/>
<rect x="22" y="4" width="1" height="1"/>
<rect x="21" y="4" width="1" height="1"/>
<rect x="21" y="3" width="1" height="1"/>
<rect x="22" y="3" width="1" height="1"/>
<rect x="22" y="2" width="1" height="1"/>
<rect x="23" y="2" width="1" height="1"/>
<rect x="24" y="2" width="1" height="1"/>
<rect x="24" y="3" width="1" height="1"/>
<rect x="25" y="3" width="1" height="1"/>
<rect x="26" y="3" width="1" height="1"/>
<rect x="26" y="4" width="1" height="1"/>
<rect x="26" y="5" width="1" height="1"/>
<rect x="25" y="5" width="1" height="1"/>
<rect x="24" y="5" width="1" height="1"/>
<rect x="24" y="6" width="1" height="1"/>
<rect x="23" y="6" width="1" height="1"/>
<rect x="25" y="6" width="1" height="1"/>
<rect x="21" y="6" width="1" height="1"/>
<rect x="20" y="6" width="1" height="1"/>
<rect x="23" y="5" width="1" height="1"/>
<rect x="23" y="4" width="1" height="1"/>
<rect x="24" y="1" width="1" height="1"/>
<rect x="25" y="1" width="1" height="1"/>
<rect x="25" y="0" width="1" height="1"/>
<rect x="26" y="0" width="1" height="1"/>
<rect x="27" y="0" width="1" height="1"/>
<rect x="28" y="0" width="1" height="1"/>
<rect x="29" y="0" width="1" height="1"/>
<rect x="30" y="0" width="1" height="1"/>
<rect x="31" y="0" width="1" height="1"/>
<rect x="27" y="1" width="1" height="1"/>
<rect x="26" y="1" width="1" height="1"/>
<rect x="23" y="3" width="1" height="1"/>
<rect x="20" y="7" width="1" height="1"/>
<rect x="20" y="9" width="1" height="1"/>
<rect x="20" y="10" width="1" height="1"/>
<rect x="24" y="4" width="1" height="1"/>
<rect x="26" y="2" width="1" height="1"/>
<rect x="27" y="2" width="1" height="1"/>
<rect x="28" y="1" width="1" height="1"/>
<rect x="32" y="0" width="1" height="1"/>
<rect x="33" y="0" width="1" height="1"/>
<rect x="32" y="1" width="1" height="1"/>
<rect x="31" y="1" width="1" height="1"/>
<rect x="30" y="2" width="1" height="1"/>
<rect x="29" y="3" width="1" height="1"/>
<rect x="28" y="3" width="1" height="1"/>
<rect x="27" y="4" width="1" height="1"/>
<rect x="21" y="2" width="1" height="1"/>
<rect x="21" y="1" width="1" height="1"/>
<rect x="22" y="0" width="1" height="1"/>
<rect x="23" y="0" width="1" height="1"/>
<rect x="24" y="0" width="1" height="1"/>
<rect x="25" y="4" width="1" height="1"/>
<rect x="27" y="3" width="1" height="1"/>
<rect x="28" y="2" width="1" height="1"/>
<rect x="29" y="1" width="1" height="1"/>
<rect x="30" y="1" width="1" height="1"/>
<rect x="34" y="0" width="1" height="1"/>
<rect x="35" y="0" width="1" height="1"/>
<rect x="36" y="1" width="1" height="1"/>
<rect x="36" y="2" width="1" height="1"/>
<rect x="21" y="10" width="1" height="1"/>
<rect x="22" y="9" width="1" height="1"/>
<rect x="23" y="8" width="1" height="1"/>
<rect x="23" y="7" width="1" height="1"/>
<rect x="28" y="4" width="1" height="1"/>
<rect x="30" y="3" width="1" height="1"/>
<rect x="31" y="3" width="1" height="1"/>
<rect x="32" y="3" width="1" height="1"/>
<rect x="33" y="3" width="1" height="1"/>
<rect x="34" y="3" width="1" height="1"/>
<rect x="35" y="2" width="1" height="1"/>
<rect x="34" y="2" width="1" height="1"/>
<rect x="31" y="4" width="1" height="1"/>
<rect x="30" y="4" width="1" height="1"/>
<rect x="29" y="4" width="1" height="1"/>
<rect x="28" y="5" width="1" height="1"/>
<rect x="27" y="5" width="1" height="1"/>
<rect x="26" y="6" width="1" height="1"/>
<rect x="24" y="7" width="1" height="1"/>
<rect x="22" y="8" width="1" height="1"/>
<rect x="24" y="8" width="1" height="1"/>
<rect x="25" y="7" width="1" height="1"/>
<rect x="32" y="5" width="1" height="1"/>
<rect x="32" y="4" width="1" height="1"/>
<rect x="37" y="2" width="1" height="1"/>
<rect x="36" y="3" width="1" height="1"/>
<rect x="35" y="3" width="1" height="1"/>
<rect x="33" y="4" width="1" height="1"/>
<rect x="30" y="5" width="1" height="1"/>
<rect x="29" y="5" width="1" height="1"/>
<rect x="40" y="4" width="1" height="1"/>
<rect x="39" y="3" width="1" height="1"/>
<rect x="38" y="3" width="1" height="1"/>
<rect x="37" y="3" width="1" height="1"/>
<rect x="35" y="4" width="1" height="1"/>
<rect x="34" y="4" width="1" height="1"/>
<rect x="31" y="5" width="1" height="1"/>
<rect x="29" y="6" width="1" height="1"/>
<rect x="28" y="6" width="1" height="1"/>
<rect x="27" y="6" width="1" height="1"/>
<rect x="26" y="7" width="1" height="1"/>
<rect x="33" y="5" width="1" height="1"/>
<rect x="40" y="3" width="1" height="1"/>
<rect x="41" y="2" width="1" height="1"/>
<rect x="42" y="2" width="1" height="1"/>
<rect x="43" y="2" width="1" height="1"/>
<rect x="31" y="6" width="1" height="1"/>
<rect x="30" y="6" width="1" height="1"/>
<rect x="32" y="6" width="1" height="1"/>
<rect x="33" y="6" width="1" height="1"/>
<rect x="34" y="6" width="1" height="1"/>
<rect x="35" y="5" width="1" height="1"/>
<rect x="36" y="5" width="1" height="1"/>
<rect x="37" y="5" width="1" height="1"/>
<rect x="38" y="4" width="1" height="1"/>
<rect x="39" y="4" width="1" height="1"/>
<rect x="41" y="3" width="1" height="1"/>
<rect x="42" y="3" width="1" height="1"/>
<rect x="43" y="3" width="1" height="1"/>
<rect x="43" y="4" width="1" height="1"/>
<rect x="42" y="4" width="1" height="1"/>
<rect x="41" y="4" width="1" height="1"/>
<rect x="40" y="5" width="1" height="1"/>
<rect x="39" y="5" width="1" height="1"/>
<rect x="38" y="5" width="1" height="1"/>
<rect x="37" y="6" width="1" height="1"/>
<rect x="36" y="6" width="1" height="1"/>
<rect x="35" y="6" width="1" height="1"/>
<rect x="28" y="7" width="1" height="1"/>
<rect x="27" y="7" width="1" height="1"/>
<rect x="26" y="8" width="1" height="1"/>
<rect x="25" y="8" width="1" height="1"/>
<rect x="21" y="9" width="1" height="1"/>
<rect x="41" y="5" width="1" height="1"/>
<rect x="44" y="4" width="1" height="1"/>
<rect x="42" y="5" width="1" height="1"/>
<rect x="34" y="7" width="1" height="1"/>
<rect x="33" y="7" width="1" height="1"/>
<rect x="32" y="8" width="1" height="1"/>
<rect x="31" y="8" width="1" height="1"/>
<rect x="30" y="8" width="1" height="1"/>
<rect x="29" y="8" width="1" height="1"/>
<rect x="28" y="8" width="1" height="1"/>
<rect x="27" y="9" width="1" height="1"/>
<rect x="26" y="9" width="1" height="1"/>
<rect x="25" y="9" width="1" height="1"/>
<rect x="24" y="9" width="1" height="1"/>
<rect x="23" y="9" width="1" height="1"/>
<rect x="29" y="7" width="1" height="1"/>
<rect x="30" y="7" width="1" height="1"/>
<rect x="31" y="7" width="1" height="1"/>
<rect x="32" y="7" width="1" height="1"/>
<rect x="38" y="6" width="1" height="1"/>
<rect x="43" y="5" width="1" height="1"/>
<rect x="39" y="6" width="1" height="1"/>
<rect x="37" y="7" width="1" height="1"/>
<rect x="36" y="7" width="1" height="1"/>
<rect x="35" y="7" width="1" height="1"/>
<rect x="33" y="8" width="1" height="1"/>
<rect x="30" y="9" width="1" height="1"/>
<rect x="29" y="9" width="1" height="1"/>
<rect x="28" y="10" width="1" height="1"/>
<rect x="27" y="10" width="1" height="1"/>
<rect x="26" y="10" width="1" height="1"/>
<rect x="25" y="11" width="1" height="1"/>
<rect x="32" y="10" width="1" height="1"/>
<rect x="33" y="10" width="1" height="1"/>
<rect x="34" y="9" width="1" height="1"/>
<rect x="35" y="9" width="1" height="1"/>
<rect x="36" y="9" width="1" height="1"/>
<rect x="37" y="8" width="1" height="1"/>
<rect x="38" y="8" width="1" height="1"/>
<rect x="39" y="8" width="1" height="1"/>
<rect x="40" y="7" width="1" height="1"/>
<rect x="41" y="6" width="1" height="1"/>
<rect x="42" y="6" width="1" height="1"/>
<rect x="43" y="6" width="1" height="1"/>
<rect x="44" y="5" width="1" height="1"/>
<rect x="45" y="5" width="1" height="1"/>
<rect x="40" y="6" width="1" height="1"/>
<rect x="39" y="7" width="1" height="1"/>
<rect x="38" y="7" width="1" height="1"/>
<rect x="34" y="8" width="1" height="1"/>
<rect x="29" y="10" width="1" height="1"/>
<rect x="31" y="9" width="1" height="1"/>
<rect x="32" y="9" width="1" height="1"/>
<rect x="33" y="9" width="1" height="1"/>
<rect x="35" y="8" width="1" height="1"/>
<rect x="36" y="8" width="1" height="1"/>
<rect x="46" y="4" width="1" height="1"/>
<rect x="47" y="4" width="1" height="1"/>
<rect x="47" y="5" width="1" height="1"/>
<rect x="46" y="5" width="1" height="1"/>
<rect x="45" y="6" width="1" height="1"/>
<rect x="44" y="6" width="1" height="1"/>
<rect x="42" y="7" width="1" height="1"/>
<rect x="41" y="7" width="1" height="1"/>
<rect x="37" y="9" width="1" height="1"/>
<rect x="35" y="10" width="1" height="1"/>
<rect x="34" y="10" width="1" height="1"/>
<rect x="40" y="8" width="1" height="1"/>
<rect x="43" y="7" width="1" height="1"/>
<rect x="46" y="6" width="1" height="1"/>
<rect x="48" y="5" width="1" height="1"/>
<rect x="38" y="9" width="1" height="1"/>
<rect x="37" y="10" width="1" height="1"/>
<rect x="36" y="10" width="1" height="1"/>
<rect x="39" y="9" width="1" height="1"/>
<rect x="49" y="5" width="1" height="1"/>
<rect x="50" y="5" width="1" height="1"/>
<rect x="51" y="6" width="1" height="1"/>
<rect x="50" y="6" width="1" height="1"/>
<rect x="49" y="6" width="1" height="1"/>
<rect x="48" y="6" width="1" height="1"/>
<rect x="47" y="6" width="1" height="1"/>
<rect x="45" y="7" width="1" height="1"/>
<rect x="44" y="7" width="1" height="1"/>
<rect x="42" y="8" width="1" height="1"/>
<rect x="41" y="8" width="1" height="1"/>
<rect x="40" y="9" width="1" height="1"/>
<rect x="38" y="10" width="1" height="1"/>
<rect x="39" y="10" width="1" height="1"/>
<rect x="41" y="9" width="1" height="1"/>
<rect x="52" y="6" width="1" height="1"/>
<rect x="53" y="6" width="1" height="1"/>
<rect x="50" y="7" width="1" height="1"/>
<rect x="49" y="7" width="1" height="1"/>
<rect x="48" y="7" width="1" height="1"/>
<rect x="47" y="7" width="1" height="1"/>
<rect x="46" y="8" width="1" height="1"/>
<rect x="45" y="8" width="1" height="1"/>
<rect x="44" y="9" width="1" height="1"/>
<rect x="43" y="9" width="1" height="1"/>
<rect x="42" y="10" width="1" height="1"/>
<rect x="41" y="10" width="1" height="1"/>
<rect x="40" y="11" width="1" height="1"/>
<rect x="39" y="11" width="1" height="1"/>
<rect x="38" y="12" width="1" height="1"/>
<rect x="37" y="12" width="1" height="1"/>
<rect x="36" y="13" width="1" height="1"/>
<rect x="35" y="13" width="1" height="1"/>
<rect x="34" y="14" width="1" height="1"/>
<rect x="33" y="15" width="1" height="1"/>
<rect x="33" y="16" width="1" height="1"/>
<rect x="34" y="15" width="1" height="1"/>
<rect x="35" y="14" width="1" height="1"/>
<rect x="36" y="14" width="1" height="1"/>
<rect x="37" y="13" width="1" height="1"/>
<rect x="38" y="13" width="1" height="1"/>
<rect x="39" y="12" width="1" height="1"/>
<rect x="41" y="11" width="1" height="1"/>
<rect x="45" y="9" width="1" height="1"/>
<rect x="47" y="8" width="1" height="1"/>
<rect x="48" y="8" width="1" height="1"/>
<rect x="49" y="8" width="1" height="1"/>
<rect x="50" y="8" width="1" height="1"/>
<rect x="51" y="8" width="1" height="1"/>
<rect x="52" y="8" width="1" height="1"/>
<rect x="50" y="9" width="1" height="1"/>
<rect x="49" y="9" width="1" height="1"/>
<rect x="48" y="9" width="1" height="1"/>
<rect x="47" y="9" width="1" height="1"/>
<rect x="46" y="10" width="1" height="1"/>
<rect x="45" y="10" width="1" height="1"/>
<rect x="44" y="11" width="1" height="1"/>
<rect x="43" y="11" width="1" height="1"/>
<rect x="42" y="11" width="1" height="1"/>
<rect x="41" y="12" width="1" height="1"/>
<rect x="40" y="12" width="1" height="1"/>
<rect x="39" y="13" width="1" height="1"/>
<rect x="37" y="14" width="1" height="1"/>
<rect x="38" y="14" width="1" height="1"/>
<rect x="40" y="13" width="1" height="1"/>
<rect x="44" y="10" width="1" height="1"/>
<rect x="46" y="9" width="1" height="1"/>
<rect x="51" y="9" width="1" height="1"/>
<rect x="49" y="10" width="1" height="1"/>
<rect x="48" y="10" width="1" height="1"/>
<rect x="47" y="10" width="1" height="1"/>
<rect x="45" y="11" width="1" height="1"/>
<rect x="43" y="12" width="1" height="1"/>
<rect x="42" y="12" width="1" height="1"/>
<rect x="41" y="13" width="1" height="1"/>
<rect x="40" y="14" width="1" height="1"/>
<rect x="42" y="13" width="1" height="1"/>
<rect x="46" y="11" width="1" height="1"/>
<rect x="50" y="10" width="1" height="1"/>
<rect x="47" y="11" width="1" height="1"/>
<rect x="46" y="12" width="1" height="1"/>
<rect x="45" y="12" width="1" height="1"/>
<rect x="44" y="13" width="1" height="1"/>
<rect x="43" y="14" width="1" height="1"/>
<rect x="42" y="14" width="1" height="1"/>
<rect x="41" y="15" width="1" height="1"/>
<rect x="40" y="15" width="1" height="1"/>
<rect x="42" y="15" width="1" height="1"/>
<rect x="44" y="14" width="1" height="1"/>
<rect x="45" y="13" width="1" height="1"/>
<rect x="47" y="12" width="1" height="1"/>
<rect x="48" y="12" width="1" height="1"/>
<rect x="47" y="13" width="1" height="1"/>
<rect x="46" y="14" width="1" height="1"/>
<rect x="45" y="14" width="1" height="1"/>
<rect x="40" y="16" width="1" height="1"/>
<rect x="40" y="17" width="1" height="1"/>
<rect x="41" y="17" width="1" height="1"/>
<rect x="40" y="18" width="1" height="1"/>
<rect x="40" y="19" width="1" height="1"/>
<rect x="39" y="19" width="1" height="1"/>
<rect x="39" y="20" width="1" height="1"/>
<rect x="38" y="20" width="1" height="1"/>
<rect x="39" y="18" width="1" height="1"/>
<rect x="38" y="21" width="1" height="1"/>
<rect x="37" y="21" width="1" height="1"/>
<rect x="38" y="19" width="1" height="1"/>
<rect x="41" y="16" width="1" height="1"/>
<rect x="42" y="16" width="1" height="1"/>
<rect x="44" y="15" width="1" height="1"/>
<rect x="44" y="16" width="1" height="1"/>
<rect x="46" y="13" width="1" height="1"/>
<rect x="45" y="15" width="1" height="1"/>
<rect x="45" y="16" width="1" height="1"/>
<rect x="45" y="17" width="1" height="1"/>
<rect x="45" y="18" width="1" height="1"/>
<rect x="45" y="19" width="1" height="1"/>
<rect x="46" y="19" width="1" height="1"/>
<rect x="46" y="18" width="1" height="1"/>
<rect x="46" y="17" width="1" height="1"/>
<rect x="46" y="16" width="1" height="1"/>
<rect x="46" y="15" width="1" height="1"/>
<rect x="47" y="19" width="1" height="1"/>
<rect x="47" y="20" width="1" height="1"/>
<rect x="47" y="21" width="1" height="1"/>
<rect x="48" y="21" width="1" height="1"/>
<rect x="48" y="22" width="1" height="1"/>
<rect x="49" y="23" width="1" height="1"/>
<rect x="49" y="24" width="1" height="1"/>
<rect x="49" y="25" width="1" height="1"/>
<rect x="48" y="26" width="1" height="1"/>
<rect x="48" y="27" width="1" height="1"/>
<rect x="48" y="25" width="1" height="1"/>
<rect x="48" y="24" width="1" height="1"/>
<rect x="48" y="23" width="1" height="1"/>
<rect x="47" y="22" width="1" height="1"/>
<rect x="47" y="18" width="1" height="1"/>
<rect x="47" y="17" width="1" height="1"/>
<rect x="47" y="15" width="1" height="1"/>
<rect x="47" y="16" width="1" height="1"/>
<rect x="48" y="19" width="1" height="1"/>
<rect x="48" y="20" width="1" height="1"/>
<rect x="48" y="28" width="1" height="1"/>
<rect x="48" y="29" width="1" height="1"/>
<rect x="47" y="14" width="1" height="1"/>
<rect x="48" y="14" width="1" height="1"/>
<rect x="48" y="15" width="1" height="1"/>
<rect x="48" y="16" width="1" height="1"/>
<rect x="49" y="16" width="1" height="1"/>
<rect x="49" y="17" width="1" height="1"/>
<rect x="49" y="18" width="1" height="1"/>
<rect x="50" y="19" width="1" height="1"/>
<rect x="50" y="20" width="1" height="1"/>
<rect x="50" y="21" width="1" height="1"/>
<rect x="50" y="22" width="1" height="1"/>
<rect x="50" y="23" width="1" height="1"/>
<rect x="50" y="24" width="1" height="1"/>
<rect x="50" y="25" width="1" height="1"/>
<rect x="50" y="26" width="1" height="1"/>
<rect x="50" y="27" width="1" height="1"/>
<rect x="51" y="28" width="1" height="1"/>
<rect x="51" y="29" width="1" height="1"/>
<rect x="51" y="30" width="1" height="1"/>
<rect x="50" y="30" width="1" height="1"/>
<rect x="50" y="31" width="1" height="1"/>
<rect x="49" y="31" width="1" height="1"/>
<rect x="49" y="32" width="1" height="1"/>
<rect x="49" y="33" width="1" height="1"/>
<rect x="48" y="33" width="1" height="1"/>
<rect x="50" y="29" width="1" height="1"/>
<rect x="50" y="28" width="1" height="1"/>
<rect x="49" y="20" width="1" height="1"/>
<rect x="49" y="19" width="1" height="1"/>
<rect x="49" y="15" width="1" height="1"/>
<rect x="50" y="16" width="1" height="1"/>
<rect x="49" y="14" width="1" height="1"/>
<rect x="50" y="11" width="1" height="1"/>
<rect x="51" y="10" width="1" height="1"/>
<rect x="51" y="11" width="1" height="1"/>
<rect x="50" y="12" width="1" height="1"/>
<rect x="49" y="12" width="1" height="1"/>
<rect x="49" y="13" width="1" height="1"/>
<rect x="50" y="14" width="1" height="1"/>
<rect x="51" y="14" width="1" height="1"/>
<rect x="52" y="15" width="1" height="1"/>
<rect x="52" y="16" width="1" height="1"/>
<rect x="52" y="17" width="1" height="1"/>
<rect x="52" y="18" width="1" height="1"/>
<rect x="51" y="18" width="1" height="1"/>
<rect x="52" y="19" width="1" height="1"/>
<rect x="51" y="17" width="1" height="1"/>
<rect x="51" y="16" width="1" height="1"/>
<rect x="51" y="15" width="1" height="1"/>
<rect x="50" y="15" width="1" height="1"/>
<rect x="50" y="13" width="1" height="1"/>
<rect x="50" y="17" width="1" height="1"/>
<rect x="50" y="18" width="1" height="1"/>
<rect x="36" y="12" width="1" height="1"/>
<rect x="19" y="21" width="1" height="1"/>
<rect x="19" y="22" width="1" height="1"/>
<rect x="20" y="22" width="1" height="1"/>
<rect x="20" y="23" width="1" height="1"/>
<rect x="20" y="24" width="1" height="1"/>
<rect x="20" y="25" width="1" height="1"/>
<rect x="20" y="26" width="1" height="1"/>
<rect x="20" y="27" width="1" height="1"/>
<rect x="20" y="28" width="1" height="1"/>
<rect x="20" y="21" width="1" height="1"/>
</g>
</g>
<g data-layer="headband" data-style="none">
</g>
</g>
</g>
</svg>