<svg width="500" height="500" viewBox="70 -30 500 500" xmlns="http://www.w3.org/2000/svg">
<g shape-rendering="crispEdges">
<g transform="scale(10)">
<g data-layer="face" data-skin="olive" data-jaw="3">
<g data-piece="skin-base" data-color-token="skin.base" data-color-label="Skin Base" fill="#b88457">
<rect x="17" y="15" width="30" height="17"/>
<rect x="19" y="32" width="26" height="3"/>
<rect x="15" y="18" width="2" height="13"/>
<rect x="47" y="18" width="2" height="13"/>
<rect x="20" y="37" width="24" height="3"/>
<rect x="21" y="40" width="22" height="2"/>
<rect x="19" y="35" width="26" height="2"/>
</g>
<g data-piece="skin-sh" data-color-token="skin.sh" data-color-label="Skin Sh" fill="#a5734a">
<rect x="22" y="42" width="20" height="1"/>
<rect x="23" y="43" width="18" height="2"/>
<rect x="15" y="20" width="2" height="8"/>
<rect x="47" y="20" width="2" height="8"/>
<rect x="19" y="33" width="2" height="4"/>
<rect x="43" y="33" width="2" height="4"/>
</g>
<g data-piece="skin-hi" data-color-token="skin.hi" data-color-label="Skin Hi" fill="#c89668">
<rect x="17" y="15" width="30" height="2"/>
<rect x="19" y="17" width="4" height="2"/>
<rect x="41" y="17" width="4" height="2"/>
<rect x="19" y="29" width="4" height="3"/>
<rect x="41" y="29" width="4" height="3"/>
<rect x="20" y="13" width="23" height="2"/>
</g>
</g>
<g data-layer="eyebrows" data-thickness="1" data-angle="unibrow" data-color="dark_brown">
<g data-piece="base" data-color-token="brow.sh" data-color-label="base" data-color-opacity="0.66" fill="#2b1d12">
<rect x="20" y="21" width="1" height="1"/>
<rect x="21" y="21" width="1" height="1"/>
<rect x="22" y="21" width="1" height="1"/>
<rect x="23" y="21" width="1" height="1"/>
<rect x="24" y="21" width="1" height="1"/>
<rect x="25" y="21" width="1" height="1"/>
<rect x="26" y="21" width="1" height="1"/>
<rect x="27" y="21" width="1" height="1"/>
<rect x="27" y="22" width="1" height="1"/>
<rect x="28" y="22" width="1" height="1"/>
<rect x="29" y="22" width="1" height="1"/>
<rect x="30" y="22" width="1" height="1"/>
<rect x="30" y="23" width="1" height="1"/>
<rect x="31" y="23" width="1" height="1"/>
<rect x="32" y="23" width="1" height="1"/>
<rect x="33" y="23" width="1" height="1"/>
<rect x="33" y="22" width="1" height="1"/>
<rect x="34" y="22" width="1" height="1"/>
<rect x="35" y="22" width="1" height="1"/>
<rect x="35" y="21" width="1" height="1"/>
<rect x="36" y="21" width="1" height="1"/>
<rect x="37" y="21" width="1" height="1"/>
<rect x="38" y="21" width="1" height="1"/>
<rect x="39" y="21" width="1" height="1"/>
<rect x="40" y="21" width="1" height="1"/>
<rect x="41" y="21" width="1" height="1"/>
<rect x="42" y="21" width="1" height="1"/>
</g>
</g>
<g data-layer="eyes" data-shape="minimal" data-color="teal">
<g data-piece="base-2" data-color="#ffffff" data-color-label="Eye" fill="#ffffff">
<rect x="22" y="27" width="1" height="1"/>
<rect x="22" y="28" width="1" height="1"/>
<rect x="23" y="28" width="1" height="1"/>
<rect x="24" y="28" width="1" height="1"/>
<rect x="25" y="28" width="1" height="1"/>
<rect x="25" y="27" width="1" height="1"/>
<rect x="21" y="28" width="1" height="1"/>
<rect x="21" y="27" width="1" height="1"/>
<rect x="37" y="27" width="1" height="1"/>
<rect x="37" y="28" width="1" height="1"/>
<rect x="38" y="28" width="1" height="1"/>
<rect x="39" y="28" width="1" height="1"/>
<rect x="40" y="28" width="1" height="1"/>
<rect x="41" y="28" width="1" height="1"/>
<rect x="41" y="27" width="1" height="1"/>
</g>
<g data-piece="base" data-color-token="eye.pupil" data-color-label="Base" fill="#3f7073">
<rect x="36" y="26" width="1" height="1"/>
<rect x="37" y="26" width="1" height="1"/>
<rect x="38" y="26" width="1" height="1"/>
<rect x="39" y="26" width="1" height="1"/>
<rect x="40" y="26" width="1" height="1"/>
<rect x="41" y="26" width="1" height="1"/>
<rect x="21" y="26" width="1" height="1"/>
<rect x="22" y="26" width="1" height="1"/>
<rect x="23" y="26" width="1" height="1"/>
<rect x="24" y="26" width="1" height="1"/>
<rect x="24" y="27" width="1" height="1"/>
<rect x="25" y="26" width="1" height="1"/>
<rect x="26" y="26" width="1" height="1"/>
<rect x="38" y="27" width="1" height="1"/>
<rect x="40" y="27" width="1" height="1"/>
<rect x="39" y="27" width="1" height="1"/>
<rect x="23" y="27" width="1" height="1"/>
<rect x="22" y="27" width="1" height="1"/>
<rect x="20" y="26" width="1" height="1"/>
<rect x="42" y="26" width="1" height="1"/>
</g>
<g data-piece="eye-iris" data-color-token="eye.iris" data-color-label="Eye Iris" fill="#85d1cf">
<rect x="23" y="27" width="1" height="1"/>
<rect x="39" y="27" width="1" height="1"/>
</g>
</g>
<g data-layer="nose" data-shape="long">
<g data-piece="skin-deep" data-color-token="skin.deep" data-color-label="Skin Deep" transform="translate(0 1)" fill="#8a5c38">
<rect x="31" y="29" width="1" height="1"/>
<rect x="31" y="30" width="1" height="1"/>
<rect x="31" y="31" width="1" height="1"/>
<rect x="30" y="32" width="1" height="1"/>
<rect x="30" y="31" width="1" height="1"/>
<rect x="29" y="32" width="1" height="1"/>
<rect x="31" y="32" width="1" height="1"/>
<rect x="33" y="32" width="1" height="1"/>
<rect x="32" y="32" width="1" height="1"/>
<rect x="32" y="31" width="1" height="1"/>
</g>
<g data-piece="skin-shadow" data-color-token="skin.sh" data-color-label="Skin Shadow" transform="translate(1 1)" fill="#a5734a">
<rect x="29" y="27" width="1" height="1"/>
<rect x="29" y="28" width="1" height="1"/>
<rect x="29" y="29" width="1" height="1"/>
<rect x="29" y="30" width="1" height="1"/>
<rect x="28" y="31" width="1" height="1"/>
<rect x="27" y="31" width="1" height="1"/>
<rect x="27" y="32" width="1" height="1"/>
<rect x="28" y="33" width="1" height="1"/>
<rect x="29" y="33" width="1" height="1"/>
<rect x="31" y="28" width="1" height="1"/>
<rect x="31" y="27" width="1" height="1"/>
<rect x="31" y="29" width="1" height="1"/>
<rect x="31" y="30" width="1" height="1"/>
<rect x="32" y="31" width="1" height="1"/>
<rect x="33" y="31" width="1" height="1"/>
<rect x="33" y="32" width="1" height="1"/>
<rect x="32" y="33" width="1" height="1"/>
<rect x="31" y="33" width="1" height="1"/>
<rect x="30" y="33" width="1" height="1"/>
<rect x="29" y="26" width="1" height="1"/>
<rect x="31" y="26" width="1" height="1"/>
<rect x="29" y="25" width="1" height="1"/>
<rect x="31" y="25" width="1" height="1"/>
</g>
</g>
<g data-layer="neck" data-style="rounded">
<g data-piece="skin-highlight" data-color-token="skin.deep" data-color-label="Skin Deep" fill="#8a5c38">
<rect x="23" y="44" width="18" height="2"/>
<rect x="24" y="45" width="15" height="1"/>
<rect x="25" y="45" width="12" height="2"/>
</g>
<g data-piece="shadow" data-color-token="skin.sh" data-color-label="shadow" fill="#a5734a">
<rect x="23" y="45" width="1" height="1"/>
<rect x="24" y="45" width="1" height="1"/>
<rect x="25" y="45" width="1" height="1"/>
<rect x="26" y="45" width="1" height="1"/>
<rect x="27" y="45" width="1" height="1"/>
<rect x="28" y="45" width="1" height="1"/>
<rect x="29" y="45" width="1" height="1"/>
<rect x="30" y="45" width="1" height="1"/>
<rect x="31" y="45" width="1" height="1"/>
<rect x="32" y="45" width="1" height="1"/>
<rect x="33" y="45" width="1" height="1"/>
<rect x="34" y="45" width="1" height="1"/>
<rect x="35" y="45" width="1" height="1"/>
<rect x="36" y="45" width="1" height="1"/>
<rect x="37" y="45" width="1" height="1"/>
<rect x="38" y="45" width="1" height="1"/>
<rect x="39" y="45" width="1" height="1"/>
<rect x="40" y="45" width="1" height="1"/>
<rect x="36" y="46" width="1" height="1"/>
<rect x="35" y="46" width="1" height="1"/>
<rect x="34" y="46" width="1" height="1"/>
<rect x="33" y="46" width="1" height="1"/>
<rect x="32" y="46" width="1" height="1"/>
<rect x="31" y="46" width="1" height="1"/>
<rect x="30" y="46" width="1" height="1"/>
<rect x="29" y="46" width="1" height="1"/>
<rect x="28" y="46" width="1" height="1"/>
<rect x="27" y="46" width="1" height="1"/>
<rect x="26" y="46" width="1" height="1"/>
<rect x="25" y="46" width="1" height="1"/>
</g>
</g>
<g data-layer="stubble" data-style="none" data-enabled="false">
</g>
<g data-layer="mouth" data-fullness="thin" data-color="warm">
<g data-piece="color-1" data-color="#5e3a23" data-color-label="Color 1" fill="#5e3a23">
<rect x="27" y="37" width="10" height="1"/>
</g>
<g data-piece="lip" data-color-token="lip" data-color-label="Lip" fill="#8a4a3c">
<rect x="28" y="38" width="8" height="1"/>
</g>
<g data-piece="skin-hi" data-color-token="skin.hi" data-color-label="Skin Hi" fill="#c89668"></g>
<g data-piece="skin-sh" data-color-token="skin.sh" data-color-label="Skin Sh" fill="#a5734a"></g>
</g>
<g data-layer="hair" data-style="afro" data-color="dark_brown">
<g data-piece="hair-base" data-color-token="hair.base" data-color-label="Hair Base" fill="#3a2817">
<rect x="16" y="5" width="32" height="3"/>
<rect x="16" y="4" width="6" height="1"/>
<rect x="24" y="4" width="10" height="1"/>
<rect x="35" y="4" width="13" height="1"/>
<rect x="17" y="3" width="5" height="1"/>
<rect x="24" y="3" width="9" height="1"/>
<rect x="36" y="3" width="11" height="1"/>
<rect x="13" y="11" width="38" height="2"/>
<rect x="13" y="10" width="37" height="1"/>
<rect x="14" y="9" width="36" height="1"/>
<rect x="13" y="16" width="3" height="5"/>
<rect x="14" y="21" width="2" height="1"/>
<rect x="48" y="16" width="3" height="4"/>
<rect x="48" y="21" width="3" height="1"/>
<rect x="48" y="20" width="2" height="1"/>
<rect x="15" y="15" width="34" height="4"/>
<rect x="15" y="17" width="1" height="1"/>
<rect x="15" y="17" width="34" height="3"/>
<rect x="16" y="19" width="2" height="5"/>
<rect x="45" y="18" width="2" height="2"/>
<rect x="46" y="17" width="2" height="6"/>
<rect x="46" y="21" width="2" height="3"/>
<rect x="18" y="19" width="2" height="3"/>
<rect x="43" y="19" width="3" height="3"/>
<rect x="13" y="20" width="1" height="1"/>
<rect x="13" y="19" width="1" height="1"/>
<rect x="13" y="18" width="1" height="1"/>
<rect x="26" y="20" width="1" height="1"/>
<rect x="27" y="20" width="1" height="1"/>
<rect x="28" y="20" width="1" height="1"/>
<rect x="29" y="20" width="1" height="1"/>
<rect x="30" y="20" width="1" height="1"/>
<rect x="30" y="21" width="1" height="1"/>
<rect x="29" y="19" width="1" height="1"/>
<rect x="28" y="19" width="1" height="1"/>
<rect x="27" y="19" width="1" height="1"/>
<rect x="40" y="19" width="1" height="1"/>
<rect x="39" y="19" width="1" height="1"/>
<rect x="38" y="19" width="1" height="1"/>
<rect x="37" y="19" width="1" height="1"/>
<rect x="36" y="19" width="1" height="1"/>
<rect x="36" y="20" width="1" height="1"/>
<rect x="35" y="20" width="1" height="1"/>
<rect x="34" y="20" width="1" height="1"/>
<rect x="34" y="19" width="1" height="1"/>
<rect x="33" y="19" width="1" height="1"/>
<rect x="33" y="20" width="1" height="1"/>
<rect x="32" y="19" width="1" height="1"/>
<rect x="31" y="19" width="1" height="1"/>
<rect x="30" y="19" width="1" height="1"/>
<rect x="25" y="20" width="1" height="1"/>
<rect x="25" y="19" width="1" height="1"/>
<rect x="24" y="19" width="1" height="1"/>
<rect x="23" y="19" width="1" height="1"/>
<rect x="22" y="19" width="1" height="1"/>
<rect x="21" y="19" width="1" height="1"/>
<rect x="20" y="19" width="1" height="1"/>
<rect x="19" y="19" width="1" height="1"/>
<rect x="19" y="20" width="1" height="1"/>
<rect x="19" y="21" width="1" height="1"/>
<rect x="18" y="21" width="1" height="1"/>
<rect x="45" y="21" width="1" height="1"/>
<rect x="44" y="21" width="1" height="1"/>
<rect x="43" y="21" width="1" height="1"/>
</g>
<g data-piece="hair-hi" data-color-token="hair.hi" data-color-label="Hair Hi" fill="#4a3320">
<rect x="14" y="6" width="36" height="4"/>
<rect x="13" y="13" width="38" height="3"/>
<rect x="13" y="20" width="1" height="1"/>
<rect x="13" y="19" width="1" height="1"/>
<rect x="13" y="18" width="1" height="1"/>
<rect x="13" y="17" width="1" height="1"/>
<rect x="13" y="16" width="1" height="1"/>
<rect x="13" y="11" width="1" height="1"/>
<rect x="13" y="10" width="1" height="1"/>
<rect x="14" y="10" width="1" height="1"/>
<rect x="14" y="9" width="1" height="1"/>
<rect x="16" y="5" width="1" height="1"/>
<rect x="16" y="4" width="1" height="1"/>
<rect x="17" y="4" width="1" height="1"/>
<rect x="17" y="3" width="1" height="1"/>
<rect x="46" y="3" width="1" height="1"/>
<rect x="46" y="4" width="1" height="1"/>
<rect x="47" y="4" width="1" height="1"/>
<rect x="47" y="5" width="1" height="1"/>
<rect x="49" y="10" width="1" height="1"/>
<rect x="49" y="9" width="1" height="1"/>
<rect x="49" y="11" width="1" height="1"/>
<rect x="50" y="11" width="1" height="1"/>
<rect x="50" y="12" width="1" height="1"/>
<rect x="49" y="20" width="1" height="1"/>
<rect x="50" y="21" width="1" height="1"/>
<rect x="50" y="19" width="1" height="1"/>
<rect x="49" y="19" width="1" height="1"/>
<rect x="50" y="18" width="1" height="1"/>
<rect x="50" y="17" width="1" height="1"/>
<rect x="50" y="16" width="1" height="1"/>
<rect x="14" y="20" width="1" height="1"/>
<rect x="14" y="21" width="1" height="1"/>
<rect x="14" y="19" width="1" height="1"/>
<rect x="15" y="20" width="1" height="1"/>
<rect x="49" y="21" width="1" height="1"/>
<rect x="47" y="22" width="1" height="1"/>
<rect x="47" y="23" width="1" height="1"/>
<rect x="17" y="22" width="1" height="1"/>
<rect x="17" y="23" width="1" height="1"/>
<rect x="18" y="3" width="1" height="1"/>
<rect x="45" y="3" width="1" height="1"/>
<rect x="43" y="3" width="1" height="1"/>
<rect x="42" y="3" width="1" height="1"/>
<rect x="41" y="3" width="1" height="1"/>
<rect x="19" y="3" width="1" height="1"/>
<rect x="27" y="3" width="1" height="1"/>
<rect x="32" y="3" width="1" height="1"/>
<rect x="32" y="4" width="1" height="1"/>
<rect x="33" y="4" width="1" height="1"/>
<rect x="35" y="4" width="1" height="1"/>
<rect x="36" y="4" width="1" height="1"/>
<rect x="36" y="3" width="1" height="1"/>
<rect x="37" y="3" width="1" height="1"/>
<rect x="38" y="3" width="1" height="1"/>
<rect x="39" y="3" width="1" height="1"/>
<rect x="40" y="3" width="1" height="1"/>
<rect x="31" y="3" width="1" height="1"/>
<rect x="30" y="3" width="1" height="1"/>
<rect x="29" y="3" width="1" height="1"/>
<rect x="28" y="3" width="1" height="1"/>
<rect x="26" y="3" width="1" height="1"/>
<rect x="25" y="3" width="1" height="1"/>
<rect x="24" y="3" width="1" height="1"/>
<rect x="24" y="4" width="1" height="1"/>
<rect x="21" y="3" width="1" height="1"/>
<rect x="20" y="3" width="1" height="1"/>
<rect x="19" y="4" width="1" height="1"/>
<rect x="43" y="4" width="1" height="1"/>
<rect x="44" y="4" width="1" height="1"/>
<rect x="44" y="3" width="1" height="1"/>
<rect x="26" y="20" width="1" height="1"/>
<rect x="27" y="20" width="1" height="1"/>
<rect x="28" y="20" width="1" height="1"/>
<rect x="29" y="20" width="1" height="1"/>
<rect x="30" y="20" width="1" height="1"/>
<rect x="30" y="21" width="1" height="1"/>
<rect x="29" y="19" width="1" height="1"/>
<rect x="28" y="19" width="1" height="1"/>
<rect x="27" y="19" width="1" height="1"/>
<rect x="40" y="19" width="1" height="1"/>
<rect x="39" y="19" width="1" height="1"/>
<rect x="38" y="19" width="1" height="1"/>
<rect x="37" y="19" width="1" height="1"/>
<rect x="36" y="19" width="1" height="1"/>
<rect x="36" y="20" width="1" height="1"/>
<rect x="35" y="20" width="1" height="1"/>
<rect x="34" y="20" width="1" height="1"/>
<rect x="34" y="19" width="1" height="1"/>
<rect x="33" y="19" width="1" height="1"/>
<rect x="33" y="20" width="1" height="1"/>
<rect x="32" y="19" width="1" height="1"/>
<rect x="31" y="19" width="1" height="1"/>
<rect x="30" y="19" width="1" height="1"/>
<rect x="25" y="20" width="1" height="1"/>
<rect x="25" y="19" width="1" height="1"/>
<rect x="24" y="19" width="1" height="1"/>
<rect x="23" y="19" width="1" height="1"/>
<rect x="22" y="19" width="1" height="1"/>
<rect x="21" y="19" width="1" height="1"/>
<rect x="20" y="19" width="1" height="1"/>
<rect x="19" y="19" width="1" height="1"/>
<rect x="19" y="20" width="1" height="1"/>
<rect x="19" y="21" width="1" height="1"/>
<rect x="18" y="21" width="1" height="1"/>
<rect x="45" y="21" width="1" height="1"/>
<rect x="44" y="21" width="1" height="1"/>
<rect x="43" y="21" width="1" height="1"/>
</g>
</g>
<g data-layer="headband" data-style="upside_down">
<g data-piece="base" data-color="#ffffff" data-color-label="Base" fill="#ffffff">
<rect x="17" y="13" width="29" height="3"/>
<rect x="18" y="12" width="27" height="1"/>
<rect x="18" y="16" width="27" height="1"/>
</g>
<g data-piece="logo" data-color-token="eye.iris" data-color-label="Logo" transform="rotate(-6.55540019128172 41.5 14.5)" fill="#85d1cf">
<rect x="42" y="14" width="1" height="1"/>
<rect x="41" y="14" width="1" height="1"/>
<rect x="41" y="13" width="1" height="1"/>
<rect x="40" y="13" width="1" height="1"/>
<rect x="40" y="14" width="1" height="1"/>
<rect x="39" y="15" width="1" height="1"/>
<rect x="39" y="14" width="1" height="1"/>
<rect x="39" y="13" width="1" height="1"/>
<rect x="43" y="14" width="1" height="1"/>
<rect x="42" y="13" width="1" height="1"/>
<rect x="43" y="13" width="1" height="1"/>
</g>
</g>
</g>
</g>
</svg>