<svg width="500" height="500" viewBox="70 -30 500 500" xmlns="http://www.w3.org/2000/svg">
<g shape-rendering="crispEdges">
<g transform="scale(10)">
<g data-layer="hair" data-style="afro" data-color="blonde">
<rect x="16" y="3" width="32" height="5" fill="#c79a44"/>
<rect x="14" y="6" width="36" height="4" fill="#e6c878"/>
<rect x="13" y="9" width="38" height="4" fill="#c79a44"/>
<rect x="13" y="13" width="38" height="3" fill="#e6c878"/>
<rect x="13" y="16" width="3" height="6" fill="#c79a44"/>
<rect x="48" y="16" width="3" height="6" fill="#c79a44"/>
</g>
<g data-layer="face" data-skin="fair" data-jaw="2">
<rect x="17" y="15" width="30" height="20" fill="#e8c1a0"/>
<rect x="15" y="18" width="2" height="13" fill="#e8c1a0"/>
<rect x="47" y="18" width="2" height="13" fill="#e8c1a0"/>
<rect x="17" y="35" width="30" height="7" fill="#e8c1a0"/>
<rect x="20" y="42" width="24" height="3" fill="#d2a380"/>
<rect x="17" y="15" width="30" height="2" fill="#f2d2b6"/>
<rect x="19" y="17" width="4" height="2" fill="#f2d2b6"/>
<rect x="41" y="17" width="4" height="2" fill="#f2d2b6"/>
<rect x="15" y="20" width="2" height="8" fill="#d2a380"/>
<rect x="47" y="20" width="2" height="8" fill="#d2a380"/>
<rect x="17" y="33" width="4" height="4" fill="#d2a380"/>
<rect x="43" y="33" width="4" height="4" fill="#d2a380"/>
<rect x="19" y="29" width="4" height="3" fill="#f2d2b6"/>
<rect x="41" y="29" width="4" height="3" fill="#f2d2b6"/>
</g>
<g data-layer="stubble" data-enabled="false">
</g>
<g data-layer="headband" data-style="none">
</g>
<g data-layer="eyebrows" data-thickness="1" data-angle="up" data-color="blonde">
<rect x="20" y="21" width="8" height="1" fill="#a87e30"/>
<rect x="36" y="21" width="8" height="1" fill="#a87e30"/>
<rect x="20" y="20" width="3" height="1" fill="#a87e30"/>
<rect x="41" y="20" width="3" height="1" fill="#a87e30"/>
</g>
<g data-layer="eyes" data-shape="almond" data-color="brown">
<rect x="20" y="25" width="8" height="3" fill="#ffffff"/>
<rect x="36" y="25" width="8" height="3" fill="#ffffff"/>
<rect x="23" y="25" width="3" height="3" fill="#5a3a26"/>
<rect x="38" y="25" width="3" height="3" fill="#5a3a26"/>
<rect x="24" y="25" width="2" height="2" fill="#1c1208"/>
<rect x="39" y="25" width="2" height="2" fill="#1c1208"/>
<rect x="24" y="25" width="1" height="1" fill="#ffffff"/>
<rect x="39" y="25" width="1" height="1" fill="#ffffff"/>
<rect x="20" y="24" width="8" height="1" fill="#c99a76"/>
<rect x="36" y="24" width="8" height="1" fill="#c99a76"/>
<rect x="20" y="28" width="8" height="1" fill="#d2a380"/>
<rect x="36" y="28" width="8" height="1" fill="#d2a380"/>
</g>
<g data-layer="nose" data-shape="medium">
<rect x="31" y="27" width="2" height="6" fill="#d2a380"/>
<rect x="30" y="32" width="4" height="2" fill="#c99a76"/>
<rect x="33" y="28" width="1" height="4" fill="#f2d2b6"/>
<rect x="29" y="33" width="2" height="1" fill="#c99a76"/>
<rect x="33" y="33" width="2" height="1" fill="#c99a76"/>
</g>
<g data-layer="mouth" data-fullness="thin" data-color="rose">
<rect x="27" y="37" width="10" height="1" fill="#5e3a23"/>
<rect x="28" y="38" width="8" height="1" fill="#a05a4a"/>
<rect x="29" y="36" width="6" height="1" fill="#f2d2b6"/>
<rect x="27" y="40" width="10" height="2" fill="#d2a380"/>
</g>
<g data-layer="neck">
<rect x="24" y="45" width="16" height="3" fill="#d2a380"/>
<rect x="24" y="45" width="16" height="1" fill="#c99a76"/>
<rect x="26" y="45" width="12" height="1" fill="#c99a76"/>
</g>
</g>
</g>
</svg>