<svg width="500" height="500" viewBox="70 -30 500 500" xmlns="http://www.w3.org/2000/svg">
<g shape-rendering="crispEdges">
<g transform="scale(10)">
<g data-layer="face" data-skin="fair" data-jaw="3">
<g data-piece="skin-base" data-color-token="skin.base" data-color-label="Skin Base" fill="#e8c1a0">
<rect x="17" y="16" width="30" height="16"/>
<rect x="18" y="15" width="28" height="1"/>
<rect x="19" y="32" width="26" height="3"/>
<rect x="15" y="18" width="2" height="13"/>
<rect x="47" y="18" width="2" height="13"/>
<rect x="20" y="37" width="24" height="3"/>
<rect x="21" y="40" width="22" height="2"/>
<rect x="19" y="35" width="26" height="2"/>
<rect x="29" y="10" width="1" height="1"/>
<rect x="29" y="9" width="1" height="1"/>
<rect x="30" y="5" width="1" height="1"/>
<rect x="29" y="5" width="1" height="1"/>
<rect x="28" y="5" width="1" height="1"/>
<rect x="27" y="5" width="1" height="1"/>
<rect x="27" y="6" width="1" height="1"/>
<rect x="32" y="5" width="1" height="1"/>
<rect x="31" y="5" width="1" height="1"/>
<rect x="26" y="5" width="1" height="1"/>
<rect x="26" y="6" width="1" height="1"/>
<rect x="25" y="6" width="1" height="1"/>
<rect x="24" y="6" width="1" height="1"/>
<rect x="24" y="7" width="1" height="1"/>
<rect x="33" y="5" width="1" height="1"/>
<rect x="34" y="5" width="1" height="1"/>
<rect x="35" y="5" width="1" height="1"/>
<rect x="35" y="6" width="1" height="1"/>
<rect x="36" y="6" width="1" height="1"/>
<rect x="36" y="5" width="1" height="1"/>
<rect x="37" y="5" width="1" height="1"/>
<rect x="37" y="6" width="1" height="1"/>
<rect x="38" y="6" width="1" height="1"/>
<rect x="39" y="6" width="1" height="1"/>
<rect x="39" y="7" width="1" height="1"/>
<rect x="40" y="7" width="1" height="1"/>
<rect x="40" y="8" width="1" height="1"/>
<rect x="41" y="8" width="1" height="1"/>
<rect x="42" y="9" width="1" height="1"/>
<rect x="42" y="10" width="1" height="1"/>
<rect x="42" y="11" width="1" height="1"/>
<rect x="43" y="11" width="1" height="1"/>
<rect x="43" y="12" width="1" height="1"/>
<rect x="43" y="13" width="1" height="1"/>
<rect x="43" y="14" width="1" height="1"/>
<rect x="44" y="14" width="1" height="1"/>
<rect x="23" y="7" width="1" height="1"/>
<rect x="22" y="7" width="1" height="1"/>
<rect x="22" y="8" width="1" height="1"/>
<rect x="22" y="9" width="1" height="1"/>
<rect x="21" y="9" width="1" height="1"/>
<rect x="21" y="10" width="1" height="1"/>
<rect x="20" y="10" width="1" height="1"/>
<rect x="20" y="11" width="1" height="1"/>
<rect x="19" y="11" width="1" height="1"/>
<rect x="19" y="12" width="1" height="1"/>
<rect x="19" y="13" width="1" height="1"/>
<rect x="18" y="13" width="1" height="1"/>
<rect x="18" y="14" width="1" height="1"/>
<rect x="19" y="14" width="1" height="1"/>
<rect x="19" y="15" width="1" height="1"/>
<rect x="46" y="16" width="1" height="1"/>
<rect x="46" y="15" width="1" height="1"/>
<rect x="45" y="15" width="1" height="1"/>
<rect x="45" y="14" width="1" height="1"/>
<rect x="45" y="13" width="1" height="1"/>
<rect x="44" y="13" width="1" height="1"/>
<rect x="44" y="12" width="1" height="1"/>
<rect x="44" y="11" width="1" height="1"/>
<rect x="43" y="10" width="1" height="1"/>
<rect x="43" y="9" width="1" height="1"/>
<rect x="42" y="8" width="1" height="1"/>
<rect x="42" y="7" width="1" height="1"/>
<rect x="41" y="7" width="1" height="1"/>
<rect x="41" y="6" width="1" height="1"/>
<rect x="40" y="6" width="1" height="1"/>
<rect x="39" y="5" width="1" height="1"/>
<rect x="38" y="5" width="1" height="1"/>
<rect x="30" y="9" width="1" height="1"/>
<rect x="28" y="9" width="1" height="1"/>
<rect x="27" y="9" width="1" height="1"/>
<rect x="26" y="10" width="1" height="1"/>
<rect x="25" y="10" width="1" height="1"/>
<rect x="25" y="11" width="1" height="1"/>
<rect x="27" y="10" width="1" height="1"/>
<rect x="24" y="11" width="1" height="1"/>
<rect x="23" y="11" width="1" height="1"/>
<rect x="24" y="10" width="1" height="1"/>
<rect x="25" y="9" width="1" height="1"/>
<rect x="22" y="12" width="1" height="1"/>
<rect x="21" y="12" width="1" height="1"/>
<rect x="22" y="11" width="1" height="1"/>
<rect x="23" y="10" width="1" height="1"/>
<rect x="26" y="9" width="1" height="1"/>
<rect x="27" y="8" width="1" height="1"/>
<rect x="28" y="8" width="1" height="1"/>
<rect x="28" y="10" width="1" height="1"/>
<rect x="31" y="8" width="1" height="1"/>
<rect x="32" y="8" width="1" height="1"/>
<rect x="31" y="9" width="1" height="1"/>
<rect x="30" y="10" width="1" height="1"/>
<rect x="29" y="11" width="1" height="1"/>
<rect x="28" y="11" width="1" height="1"/>
<rect x="30" y="11" width="1" height="1"/>
<rect x="31" y="10" width="1" height="1"/>
<rect x="32" y="10" width="1" height="1"/>
<rect x="33" y="9" width="1" height="1"/>
<rect x="34" y="9" width="1" height="1"/>
<rect x="33" y="10" width="1" height="1"/>
<rect x="32" y="11" width="1" height="1"/>
<rect x="34" y="10" width="1" height="1"/>
<rect x="35" y="9" width="1" height="1"/>
<rect x="36" y="8" width="1" height="1"/>
<rect x="37" y="8" width="1" height="1"/>
<rect x="37" y="9" width="1" height="1"/>
<rect x="36" y="9" width="1" height="1"/>
<rect x="35" y="10" width="1" height="1"/>
<rect x="35" y="11" width="1" height="1"/>
<rect x="36" y="11" width="1" height="1"/>
<rect x="37" y="11" width="1" height="1"/>
<rect x="38" y="10" width="1" height="1"/>
<rect x="39" y="10" width="1" height="1"/>
<rect x="39" y="11" width="1" height="1"/>
<rect x="38" y="12" width="1" height="1"/>
<rect x="39" y="12" width="1" height="1"/>
<rect x="40" y="12" width="1" height="1"/>
<rect x="41" y="11" width="1" height="1"/>
<rect x="40" y="11" width="1" height="1"/>
<rect x="38" y="11" width="1" height="1"/>
<rect x="37" y="10" width="1" height="1"/>
<rect x="36" y="7" width="1" height="1"/>
<rect x="35" y="7" width="1" height="1"/>
<rect x="34" y="7" width="1" height="1"/>
<rect x="33" y="7" width="1" height="1"/>
<rect x="32" y="7" width="1" height="1"/>
<rect x="31" y="7" width="1" height="1"/>
<rect x="30" y="7" width="1" height="1"/>
<rect x="29" y="7" width="1" height="1"/>
<rect x="28" y="7" width="1" height="1"/>
<rect x="31" y="12" width="1" height="1"/>
<rect x="32" y="12" width="1" height="1"/>
<rect x="33" y="12" width="1" height="1"/>
<rect x="34" y="11" width="1" height="1"/>
<rect x="33" y="11" width="1" height="1"/>
<rect x="30" y="12" width="1" height="1"/>
<rect x="29" y="12" width="1" height="1"/>
<rect x="28" y="12" width="1" height="1"/>
<rect x="27" y="12" width="1" height="1"/>
<rect x="26" y="12" width="1" height="1"/>
<rect x="25" y="12" width="1" height="1"/>
<rect x="24" y="12" width="1" height="1"/>
<rect x="23" y="12" width="1" height="1"/>
<rect x="21" y="13" width="1" height="1"/>
<rect x="22" y="13" width="1" height="1"/>
<rect x="31" y="11" width="1" height="1"/>
<rect x="35" y="12" width="1" height="1"/>
<rect x="36" y="12" width="1" height="1"/>
<rect x="37" y="12" width="1" height="1"/>
<rect x="34" y="12" width="1" height="1"/>
<rect x="36" y="13" width="1" height="1"/>
<rect x="37" y="13" width="1" height="1"/>
<rect x="38" y="13" width="1" height="1"/>
<rect x="39" y="13" width="1" height="1"/>
<rect x="40" y="13" width="1" height="1"/>
<rect x="41" y="12" width="1" height="1"/>
<rect x="42" y="12" width="1" height="1"/>
<rect x="40" y="10" width="1" height="1"/>
<rect x="39" y="9" width="1" height="1"/>
<rect x="38" y="9" width="1" height="1"/>
<rect x="38" y="8" width="1" height="1"/>
<rect x="26" y="8" width="1" height="1"/>
<rect x="24" y="9" width="1" height="1"/>
<rect x="22" y="10" width="1" height="1"/>
<rect x="24" y="8" width="1" height="1"/>
<rect x="23" y="9" width="1" height="1"/>
<rect x="21" y="11" width="1" height="1"/>
<rect x="20" y="12" width="1" height="1"/>
<rect x="27" y="16" width="1" height="1"/>
<rect x="27" y="15" width="1" height="1"/>
<rect x="28" y="15" width="1" height="1"/>
<rect x="28" y="14" width="1" height="1"/>
<rect x="27" y="14" width="1" height="1"/>
<rect x="26" y="15" width="1" height="1"/>
<rect x="26" y="14" width="1" height="1"/>
<rect x="27" y="13" width="1" height="1"/>
<rect x="28" y="13" width="1" height="1"/>
<rect x="25" y="15" width="1" height="1"/>
<rect x="25" y="14" width="1" height="1"/>
<rect x="24" y="14" width="1" height="1"/>
<rect x="24" y="15" width="1" height="1"/>
<rect x="23" y="15" width="1" height="1"/>
<rect x="23" y="14" width="1" height="1"/>
<rect x="24" y="13" width="1" height="1"/>
<rect x="22" y="14" width="1" height="1"/>
<rect x="23" y="13" width="1" height="1"/>
<rect x="25" y="13" width="1" height="1"/>
<rect x="26" y="13" width="1" height="1"/>
<rect x="29" y="14" width="1" height="1"/>
<rect x="30" y="13" width="1" height="1"/>
<rect x="30" y="14" width="1" height="1"/>
<rect x="29" y="15" width="1" height="1"/>
<rect x="29" y="16" width="1" height="1"/>
<rect x="30" y="15" width="1" height="1"/>
<rect x="31" y="14" width="1" height="1"/>
<rect x="32" y="13" width="1" height="1"/>
<rect x="33" y="13" width="1" height="1"/>
<rect x="33" y="14" width="1" height="1"/>
<rect x="32" y="15" width="1" height="1"/>
<rect x="31" y="15" width="1" height="1"/>
<rect x="31" y="16" width="1" height="1"/>
<rect x="30" y="16" width="1" height="1"/>
<rect x="28" y="16" width="1" height="1"/>
<rect x="26" y="16" width="1" height="1"/>
<rect x="23" y="16" width="1" height="1"/>
<rect x="22" y="15" width="1" height="1"/>
<rect x="22" y="16" width="1" height="1"/>
<rect x="21" y="16" width="1" height="1"/>
<rect x="21" y="15" width="1" height="1"/>
<rect x="20" y="15" width="1" height="1"/>
<rect x="20" y="14" width="1" height="1"/>
<rect x="27" y="11" width="1" height="1"/>
<rect x="29" y="13" width="1" height="1"/>
<rect x="32" y="14" width="1" height="1"/>
<rect x="34" y="14" width="1" height="1"/>
<rect x="35" y="13" width="1" height="1"/>
<rect x="33" y="15" width="1" height="1"/>
<rect x="35" y="14" width="1" height="1"/>
<rect x="36" y="14" width="1" height="1"/>
<rect x="36" y="15" width="1" height="1"/>
<rect x="37" y="15" width="1" height="1"/>
<rect x="37" y="14" width="1" height="1"/>
<rect x="38" y="14" width="1" height="1"/>
<rect x="39" y="14" width="1" height="1"/>
<rect x="39" y="15" width="1" height="1"/>
<rect x="40" y="14" width="1" height="1"/>
<rect x="41" y="14" width="1" height="1"/>
<rect x="41" y="13" width="1" height="1"/>
<rect x="40" y="15" width="1" height="1"/>
<rect x="31" y="13" width="1" height="1"/>
<rect x="34" y="13" width="1" height="1"/>
<rect x="25" y="8" width="1" height="1"/>
<rect x="27" y="7" width="1" height="1"/>
<rect x="28" y="6" width="1" height="1"/>
<rect x="26" y="7" width="1" height="1"/>
<rect x="29" y="6" width="1" height="1"/>
<rect x="30" y="6" width="1" height="1"/>
<rect x="26" y="11" width="1" height="1"/>
<rect x="30" y="8" width="1" height="1"/>
<rect x="29" y="8" width="1" height="1"/>
<rect x="33" y="6" width="1" height="1"/>
<rect x="34" y="6" width="1" height="1"/>
<rect x="34" y="8" width="1" height="1"/>
<rect x="32" y="9" width="1" height="1"/>
<rect x="33" y="8" width="1" height="1"/>
<rect x="35" y="8" width="1" height="1"/>
<rect x="38" y="7" width="1" height="1"/>
<rect x="37" y="7" width="1" height="1"/>
<rect x="36" y="10" width="1" height="1"/>
</g>
<g data-piece="skin-sh" data-color-token="skin.sh" data-color-label="Skin Sh" fill="#d2a380">
<rect x="22" y="42" width="20" height="1"/>
<rect x="23" y="43" width="18" height="2"/>
<rect x="15" y="20" width="2" height="8"/>
<rect x="47" y="20" width="2" height="8"/>
<rect x="19" y="33" width="2" height="4"/>
<rect x="43" y="33" width="2" height="4"/>
<rect x="29" y="5" width="1" height="1"/>
<rect x="28" y="5" width="1" height="1"/>
<rect x="27" y="5" width="1" height="1"/>
<rect x="32" y="5" width="1" height="1"/>
<rect x="31" y="5" width="1" height="1"/>
<rect x="26" y="5" width="1" height="1"/>
<rect x="26" y="6" width="1" height="1"/>
<rect x="25" y="6" width="1" height="1"/>
<rect x="24" y="6" width="1" height="1"/>
<rect x="33" y="5" width="1" height="1"/>
<rect x="34" y="5" width="1" height="1"/>
<rect x="35" y="5" width="1" height="1"/>
<rect x="36" y="6" width="1" height="1"/>
<rect x="36" y="5" width="1" height="1"/>
<rect x="37" y="5" width="1" height="1"/>
<rect x="37" y="6" width="1" height="1"/>
<rect x="38" y="6" width="1" height="1"/>
<rect x="40" y="7" width="1" height="1"/>
<rect x="40" y="8" width="1" height="1"/>
<rect x="41" y="8" width="1" height="1"/>
<rect x="42" y="9" width="1" height="1"/>
<rect x="42" y="10" width="1" height="1"/>
<rect x="42" y="11" width="1" height="1"/>
<rect x="43" y="11" width="1" height="1"/>
<rect x="43" y="12" width="1" height="1"/>
<rect x="43" y="13" width="1" height="1"/>
<rect x="43" y="14" width="1" height="1"/>
<rect x="44" y="14" width="1" height="1"/>
<rect x="23" y="7" width="1" height="1"/>
<rect x="22" y="7" width="1" height="1"/>
<rect x="22" y="8" width="1" height="1"/>
<rect x="22" y="9" width="1" height="1"/>
<rect x="21" y="9" width="1" height="1"/>
<rect x="21" y="10" width="1" height="1"/>
<rect x="20" y="10" width="1" height="1"/>
<rect x="20" y="11" width="1" height="1"/>
<rect x="19" y="11" width="1" height="1"/>
<rect x="19" y="12" width="1" height="1"/>
<rect x="19" y="13" width="1" height="1"/>
<rect x="18" y="13" width="1" height="1"/>
<rect x="18" y="14" width="1" height="1"/>
<rect x="19" y="14" width="1" height="1"/>
<rect x="19" y="15" width="1" height="1"/>
<rect x="46" y="16" width="1" height="1"/>
<rect x="46" y="15" width="1" height="1"/>
<rect x="45" y="15" width="1" height="1"/>
<rect x="45" y="14" width="1" height="1"/>
<rect x="45" y="13" width="1" height="1"/>
<rect x="44" y="13" width="1" height="1"/>
<rect x="44" y="12" width="1" height="1"/>
<rect x="44" y="11" width="1" height="1"/>
<rect x="43" y="10" width="1" height="1"/>
<rect x="43" y="9" width="1" height="1"/>
<rect x="42" y="8" width="1" height="1"/>
<rect x="42" y="7" width="1" height="1"/>
<rect x="41" y="7" width="1" height="1"/>
<rect x="41" y="6" width="1" height="1"/>
<rect x="40" y="6" width="1" height="1"/>
<rect x="39" y="5" width="1" height="1"/>
<rect x="38" y="5" width="1" height="1"/>
<rect x="27" y="9" width="1" height="1"/>
<rect x="26" y="10" width="1" height="1"/>
<rect x="21" y="12" width="1" height="1"/>
<rect x="22" y="11" width="1" height="1"/>
<rect x="23" y="10" width="1" height="1"/>
<rect x="39" y="10" width="1" height="1"/>
<rect x="41" y="11" width="1" height="1"/>
<rect x="23" y="12" width="1" height="1"/>
<rect x="21" y="13" width="1" height="1"/>
<rect x="22" y="13" width="1" height="1"/>
<rect x="42" y="12" width="1" height="1"/>
<rect x="40" y="10" width="1" height="1"/>
<rect x="39" y="9" width="1" height="1"/>
<rect x="38" y="8" width="1" height="1"/>
<rect x="22" y="10" width="1" height="1"/>
<rect x="23" y="9" width="1" height="1"/>
<rect x="21" y="11" width="1" height="1"/>
<rect x="20" y="12" width="1" height="1"/>
<rect x="25" y="7" width="1" height="1"/>
<rect x="31" y="6" width="1" height="1"/>
<rect x="32" y="6" width="1" height="1"/>
<rect x="39" y="8" width="1" height="1"/>
<rect x="40" y="9" width="1" height="1"/>
<rect x="41" y="9" width="1" height="1"/>
<rect x="41" y="10" width="1" height="1"/>
</g>
<g data-piece="skin-hi" data-color-token="skin.hi" data-color-label="Skin Hi" fill="#f2d2b6">
<rect x="17" y="16" width="7" height="1"/>
<rect x="34" y="16" width="2" height="1"/>
<rect x="43" y="16" width="4" height="1"/>
<rect x="18" y="15" width="5" height="1"/>
<rect x="42" y="15" width="4" height="1"/>
<rect x="19" y="17" width="4" height="2"/>
<rect x="41" y="17" width="4" height="2"/>
<rect x="19" y="29" width="4" height="3"/>
<rect x="41" y="29" width="4" height="3"/>
<rect x="20" y="13" width="3" height="1"/>
<rect x="41" y="13" width="2" height="1"/>
<rect x="20" y="14" width="4" height="1"/>
<rect x="42" y="14" width="1" height="1"/>
<rect x="29" y="9" width="1" height="1"/>
<rect x="30" y="5" width="1" height="1"/>
<rect x="29" y="5" width="1" height="1"/>
<rect x="28" y="5" width="1" height="1"/>
<rect x="27" y="5" width="1" height="1"/>
<rect x="27" y="6" width="1" height="1"/>
<rect x="32" y="5" width="1" height="1"/>
<rect x="31" y="5" width="1" height="1"/>
<rect x="26" y="5" width="1" height="1"/>
<rect x="26" y="6" width="1" height="1"/>
<rect x="25" y="6" width="1" height="1"/>
<rect x="24" y="6" width="1" height="1"/>
<rect x="24" y="7" width="1" height="1"/>
<rect x="33" y="5" width="1" height="1"/>
<rect x="34" y="5" width="1" height="1"/>
<rect x="35" y="5" width="1" height="1"/>
<rect x="35" y="6" width="1" height="1"/>
<rect x="36" y="6" width="1" height="1"/>
<rect x="36" y="5" width="1" height="1"/>
<rect x="37" y="5" width="1" height="1"/>
<rect x="37" y="6" width="1" height="1"/>
<rect x="38" y="6" width="1" height="1"/>
<rect x="39" y="6" width="1" height="1"/>
<rect x="39" y="7" width="1" height="1"/>
<rect x="40" y="7" width="1" height="1"/>
<rect x="40" y="8" width="1" height="1"/>
<rect x="41" y="8" width="1" height="1"/>
<rect x="42" y="9" width="1" height="1"/>
<rect x="42" y="10" width="1" height="1"/>
<rect x="42" y="11" width="1" height="1"/>
<rect x="43" y="11" width="1" height="1"/>
<rect x="43" y="12" width="1" height="1"/>
<rect x="43" y="13" width="1" height="1"/>
<rect x="43" y="14" width="1" height="1"/>
<rect x="44" y="14" width="1" height="1"/>
<rect x="23" y="7" width="1" height="1"/>
<rect x="22" y="7" width="1" height="1"/>
<rect x="22" y="8" width="1" height="1"/>
<rect x="22" y="9" width="1" height="1"/>
<rect x="21" y="9" width="1" height="1"/>
<rect x="21" y="10" width="1" height="1"/>
<rect x="20" y="10" width="1" height="1"/>
<rect x="20" y="11" width="1" height="1"/>
<rect x="19" y="11" width="1" height="1"/>
<rect x="19" y="12" width="1" height="1"/>
<rect x="19" y="13" width="1" height="1"/>
<rect x="18" y="13" width="1" height="1"/>
<rect x="18" y="14" width="1" height="1"/>
<rect x="19" y="14" width="1" height="1"/>
<rect x="19" y="15" width="1" height="1"/>
<rect x="46" y="16" width="1" height="1"/>
<rect x="46" y="15" width="1" height="1"/>
<rect x="45" y="15" width="1" height="1"/>
<rect x="45" y="14" width="1" height="1"/>
<rect x="45" y="13" width="1" height="1"/>
<rect x="44" y="13" width="1" height="1"/>
<rect x="44" y="12" width="1" height="1"/>
<rect x="44" y="11" width="1" height="1"/>
<rect x="43" y="10" width="1" height="1"/>
<rect x="43" y="9" width="1" height="1"/>
<rect x="42" y="8" width="1" height="1"/>
<rect x="42" y="7" width="1" height="1"/>
<rect x="41" y="7" width="1" height="1"/>
<rect x="41" y="6" width="1" height="1"/>
<rect x="40" y="6" width="1" height="1"/>
<rect x="39" y="5" width="1" height="1"/>
<rect x="38" y="5" width="1" height="1"/>
<rect x="28" y="9" width="1" height="1"/>
<rect x="27" y="9" width="1" height="1"/>
<rect x="26" y="10" width="1" height="1"/>
<rect x="25" y="10" width="1" height="1"/>
<rect x="27" y="10" width="1" height="1"/>
<rect x="24" y="11" width="1" height="1"/>
<rect x="23" y="11" width="1" height="1"/>
<rect x="24" y="10" width="1" height="1"/>
<rect x="25" y="9" width="1" height="1"/>
<rect x="22" y="12" width="1" height="1"/>
<rect x="21" y="12" width="1" height="1"/>
<rect x="22" y="11" width="1" height="1"/>
<rect x="23" y="10" width="1" height="1"/>
<rect x="26" y="9" width="1" height="1"/>
<rect x="27" y="8" width="1" height="1"/>
<rect x="28" y="8" width="1" height="1"/>
<rect x="31" y="8" width="1" height="1"/>
<rect x="32" y="8" width="1" height="1"/>
<rect x="32" y="10" width="1" height="1"/>
<rect x="33" y="9" width="1" height="1"/>
<rect x="34" y="9" width="1" height="1"/>
<rect x="35" y="9" width="1" height="1"/>
<rect x="36" y="8" width="1" height="1"/>
<rect x="37" y="8" width="1" height="1"/>
<rect x="37" y="9" width="1" height="1"/>
<rect x="36" y="9" width="1" height="1"/>
<rect x="38" y="10" width="1" height="1"/>
<rect x="39" y="10" width="1" height="1"/>
<rect x="41" y="11" width="1" height="1"/>
<rect x="40" y="11" width="1" height="1"/>
<rect x="37" y="10" width="1" height="1"/>
<rect x="35" y="7" width="1" height="1"/>
<rect x="34" y="7" width="1" height="1"/>
<rect x="33" y="7" width="1" height="1"/>
<rect x="32" y="7" width="1" height="1"/>
<rect x="31" y="7" width="1" height="1"/>
<rect x="30" y="7" width="1" height="1"/>
<rect x="29" y="7" width="1" height="1"/>
<rect x="28" y="7" width="1" height="1"/>
<rect x="27" y="12" width="1" height="1"/>
<rect x="23" y="12" width="1" height="1"/>
<rect x="21" y="13" width="1" height="1"/>
<rect x="22" y="13" width="1" height="1"/>
<rect x="37" y="12" width="1" height="1"/>
<rect x="41" y="12" width="1" height="1"/>
<rect x="42" y="12" width="1" height="1"/>
<rect x="40" y="10" width="1" height="1"/>
<rect x="39" y="9" width="1" height="1"/>
<rect x="38" y="9" width="1" height="1"/>
<rect x="38" y="8" width="1" height="1"/>
<rect x="26" y="8" width="1" height="1"/>
<rect x="24" y="9" width="1" height="1"/>
<rect x="22" y="10" width="1" height="1"/>
<rect x="23" y="9" width="1" height="1"/>
<rect x="21" y="11" width="1" height="1"/>
<rect x="20" y="12" width="1" height="1"/>
<rect x="32" y="6" width="1" height="1"/>
<rect x="31" y="6" width="1" height="1"/>
<rect x="30" y="6" width="1" height="1"/>
<rect x="27" y="7" width="1" height="1"/>
<rect x="25" y="7" width="1" height="1"/>
<rect x="23" y="8" width="1" height="1"/>
<rect x="29" y="8" width="1" height="1"/>
<rect x="41" y="10" width="1" height="1"/>
<rect x="41" y="9" width="1" height="1"/>
<rect x="40" y="9" width="1" height="1"/>
<rect x="39" y="8" width="1" height="1"/>
<rect x="34" y="8" width="1" height="1"/>
<rect x="33" y="8" width="1" height="1"/>
<rect x="33" y="6" width="1" height="1"/>
</g>
</g>
<g data-layer="eyebrows" data-thickness="2" data-angle="up" data-color="blonde">
<rect x="19" y="21" width="9" height="2" fill="#a87e30"/>
<rect x="36" y="21" width="9" height="2" fill="#a87e30"/>
<rect x="19" y="20" width="3" height="1" fill="#a87e30"/>
<rect x="42" y="20" width="3" height="1" fill="#a87e30"/>
</g>
<g data-layer="eyes" data-shape="almond" data-color="brown">
<g data-piece="color-1" data-color="#ffffff" data-color-label="Base" transform="translate(1 0)" fill="#ffffff">
<rect x="20" y="25" width="7" height="2"/>
<rect x="35" y="25" width="7" height="2"/>
<rect x="24" y="25" width="1" height="1"/>
<rect x="37" y="25" width="1" height="1"/>
</g>
<g data-piece="eye-iris" data-color-token="eye.iris" data-color-label="Eye Iris" transform="translate(1 0)" fill="#5a3a26">
<rect x="23" y="25" width="3" height="2"/>
<rect x="37" y="25" width="3" height="2"/>
</g>
<g data-piece="eye-pupil" data-color-token="eye.pupil" data-color-label="Eye Pupil" transform="translate(1 0)" fill="#1c1208">
<rect x="24" y="25" width="2" height="2"/>
<rect x="37" y="25" width="2" height="2"/>
</g>
<g data-piece="skin-deep" data-color-token="skin.deep" data-color-label="Skin Deep" transform="translate(1 0)" fill="#c99a76">
<rect x="20" y="24" width="7" height="1"/>
<rect x="35" y="24" width="7" height="1"/>
</g>
<g data-piece="skin-sh" data-color-token="skin.sh" data-color-label="Skin Sh" transform="translate(1 0)" fill="#d2a380">
<rect x="20" y="27" width="7" height="1"/>
<rect x="35" y="27" width="7" height="1"/>
</g>
</g>
<g data-layer="nose" data-shape="pointed">
<g data-piece="skin-shadow" data-color-token="skin.sh" data-color-label="Skin Shadow" fill="#d2a380">
<rect x="31" y="33" width="1" height="1"/>
<rect x="30" y="33" width="1" height="1"/>
<rect x="29" y="33" width="1" height="1"/>
<rect x="29" y="32" width="1" height="1"/>
<rect x="30" y="31" width="1" height="1"/>
<rect x="31" y="30" width="1" height="1"/>
<rect x="31" y="29" width="1" height="1"/>
<rect x="31" y="28" width="1" height="1"/>
<rect x="31" y="27" width="1" height="1"/>
<rect x="31" y="26" width="1" height="1"/>
<rect x="32" y="33" width="1" height="1"/>
<rect x="30" y="32" width="1" height="1"/>
<rect x="31" y="31" width="1" height="1"/>
<rect x="31" y="32" width="1" height="1"/>
<rect x="32" y="32" width="1" height="1"/>
</g>
<g data-piece="skin-deep" data-color-token="skin.hi" data-color-label="Skin highlight" fill="#f2d2b6">
<rect x="31" y="28" width="1" height="1"/>
<rect x="31" y="26" width="1" height="1"/>
<rect x="32" y="27" width="1" height="1"/>
<rect x="32" y="26" width="1" height="1"/>
<rect x="32" y="28" width="1" height="1"/>
<rect x="32" y="29" width="1" height="1"/>
<rect x="32" y="31" width="1" height="1"/>
<rect x="32" y="30" width="1" height="1"/>
<rect x="30" y="33" width="1" height="1"/>
</g>
<g data-piece="skin-deep-2" data-color-token="skin.deep" data-color-label="Skin Deep" fill="#c99a76">
<rect x="31" y="33" width="1" height="1"/>
<rect x="32" y="33" width="1" height="1"/>
<rect x="30" y="33" width="1" height="1"/>
</g>
</g>
<g data-layer="neck" data-style="pencil">
<g data-piece="skin-deep" data-color-token="skin.deep" data-color-label="Skin Deep" fill="#c99a76">
<rect x="28" y="46" width="7" height="1"/>
<rect x="34" y="45" width="1" height="1"/>
<rect x="33" y="45" width="1" height="1"/>
<rect x="32" y="45" width="1" height="1"/>
<rect x="31" y="45" width="1" height="1"/>
<rect x="30" y="45" width="1" height="1"/>
<rect x="29" y="45" width="1" height="1"/>
<rect x="28" y="45" width="1" height="1"/>
<rect x="34" y="46" width="1" height="1"/>
<rect x="35" y="46" width="1" height="1"/>
<rect x="27" y="46" width="1" height="1"/>
<rect x="23" y="45" width="1" height="1"/>
<rect x="24" y="45" width="1" height="1"/>
<rect x="25" y="45" width="1" height="1"/>
<rect x="26" y="45" width="1" height="1"/>
<rect x="27" y="45" width="1" height="1"/>
<rect x="39" y="45" width="1" height="1"/>
<rect x="38" y="45" width="1" height="1"/>
<rect x="37" y="45" width="1" height="1"/>
<rect x="35" y="45" width="1" height="1"/>
<rect x="36" y="45" width="1" height="1"/>
</g>
</g>
<g data-layer="stubble" data-style="beard" data-enabled="true">
<g data-piece="base" data-color="#6f512f" data-color-label="base" data-color-opacity="0.72" fill="#6f512f">
<rect x="35" y="36" width="1" height="1"/>
<rect x="36" y="36" width="1" height="1"/>
<rect x="37" y="36" width="1" height="1"/>
<rect x="38" y="36" width="1" height="1"/>
<rect x="38" y="37" width="1" height="1"/>
<rect x="37" y="37" width="1" height="1"/>
<rect x="36" y="37" width="1" height="1"/>
<rect x="35" y="37" width="1" height="1"/>
<rect x="34" y="37" width="1" height="1"/>
<rect x="33" y="37" width="1" height="1"/>
<rect x="32" y="37" width="1" height="1"/>
<rect x="31" y="37" width="1" height="1"/>
<rect x="30" y="37" width="1" height="1"/>
<rect x="29" y="37" width="1" height="1"/>
<rect x="28" y="37" width="1" height="1"/>
<rect x="27" y="37" width="1" height="1"/>
<rect x="26" y="37" width="1" height="1"/>
<rect x="26" y="36" width="1" height="1"/>
<rect x="25" y="36" width="1" height="1"/>
<rect x="24" y="36" width="1" height="1"/>
<rect x="23" y="36" width="1" height="1"/>
<rect x="22" y="36" width="1" height="1"/>
<rect x="22" y="35" width="1" height="1"/>
<rect x="22" y="34" width="1" height="1"/>
<rect x="21" y="34" width="1" height="1"/>
<rect x="20" y="34" width="1" height="1"/>
<rect x="20" y="33" width="1" height="1"/>
<rect x="19" y="33" width="1" height="1"/>
<rect x="19" y="34" width="1" height="1"/>
<rect x="19" y="35" width="1" height="1"/>
<rect x="19" y="36" width="1" height="1"/>
<rect x="20" y="37" width="1" height="1"/>
<rect x="20" y="38" width="1" height="1"/>
<rect x="20" y="39" width="1" height="1"/>
<rect x="21" y="39" width="1" height="1"/>
<rect x="21" y="40" width="1" height="1"/>
<rect x="21" y="41" width="1" height="1"/>
<rect x="22" y="41" width="1" height="1"/>
<rect x="22" y="42" width="1" height="1"/>
<rect x="23" y="42" width="1" height="1"/>
<rect x="23" y="43" width="1" height="1"/>
<rect x="24" y="43" width="1" height="1"/>
<rect x="24" y="44" width="1" height="1"/>
<rect x="25" y="44" width="1" height="1"/>
<rect x="26" y="44" width="1" height="1"/>
<rect x="27" y="44" width="1" height="1"/>
<rect x="28" y="44" width="1" height="1"/>
<rect x="29" y="44" width="1" height="1"/>
<rect x="30" y="44" width="1" height="1"/>
<rect x="31" y="44" width="1" height="1"/>
<rect x="32" y="44" width="1" height="1"/>
<rect x="33" y="44" width="1" height="1"/>
<rect x="34" y="44" width="1" height="1"/>
<rect x="35" y="44" width="1" height="1"/>
<rect x="36" y="44" width="1" height="1"/>
<rect x="37" y="44" width="1" height="1"/>
<rect x="38" y="44" width="1" height="1"/>
<rect x="39" y="44" width="1" height="1"/>
<rect x="40" y="44" width="1" height="1"/>
<rect x="40" y="43" width="1" height="1"/>
<rect x="40" y="42" width="1" height="1"/>
<rect x="41" y="42" width="1" height="1"/>
<rect x="41" y="41" width="1" height="1"/>
<rect x="42" y="41" width="1" height="1"/>
<rect x="42" y="40" width="1" height="1"/>
<rect x="42" y="39" width="1" height="1"/>
<rect x="43" y="39" width="1" height="1"/>
<rect x="43" y="38" width="1" height="1"/>
<rect x="43" y="37" width="1" height="1"/>
<rect x="43" y="36" width="1" height="1"/>
<rect x="44" y="36" width="1" height="1"/>
<rect x="44" y="35" width="1" height="1"/>
<rect x="44" y="34" width="1" height="1"/>
<rect x="43" y="34" width="1" height="1"/>
<rect x="43" y="35" width="1" height="1"/>
<rect x="42" y="35" width="1" height="1"/>
<rect x="42" y="34" width="1" height="1"/>
<rect x="41" y="35" width="1" height="1"/>
<rect x="40" y="35" width="1" height="1"/>
<rect x="40" y="36" width="1" height="1"/>
<rect x="39" y="36" width="1" height="1"/>
<rect x="37" y="38" width="1" height="1"/>
<rect x="37" y="39" width="1" height="1"/>
<rect x="36" y="39" width="1" height="1"/>
<rect x="36" y="40" width="1" height="1"/>
<rect x="36" y="41" width="1" height="1"/>
<rect x="35" y="41" width="1" height="1"/>
<rect x="34" y="41" width="1" height="1"/>
<rect x="33" y="41" width="1" height="1"/>
<rect x="32" y="41" width="1" height="1"/>
<rect x="31" y="41" width="1" height="1"/>
<rect x="30" y="41" width="1" height="1"/>
<rect x="29" y="41" width="1" height="1"/>
<rect x="28" y="41" width="1" height="1"/>
<rect x="27" y="41" width="1" height="1"/>
<rect x="27" y="40" width="1" height="1"/>
<rect x="27" y="39" width="1" height="1"/>
<rect x="26" y="39" width="1" height="1"/>
<rect x="26" y="38" width="1" height="1"/>
<rect x="20" y="35" width="1" height="1"/>
<rect x="20" y="36" width="1" height="1"/>
<rect x="21" y="36" width="1" height="1"/>
<rect x="21" y="35" width="1" height="1"/>
<rect x="21" y="37" width="1" height="1"/>
<rect x="21" y="38" width="1" height="1"/>
<rect x="22" y="38" width="1" height="1"/>
<rect x="22" y="37" width="1" height="1"/>
<rect x="23" y="37" width="1" height="1"/>
<rect x="23" y="38" width="1" height="1"/>
<rect x="23" y="39" width="1" height="1"/>
<rect x="22" y="39" width="1" height="1"/>
<rect x="22" y="40" width="1" height="1"/>
<rect x="24" y="37" width="1" height="1"/>
<rect x="24" y="38" width="1" height="1"/>
<rect x="24" y="39" width="1" height="1"/>
<rect x="23" y="40" width="1" height="1"/>
<rect x="23" y="41" width="1" height="1"/>
<rect x="24" y="40" width="1" height="1"/>
<rect x="25" y="37" width="1" height="1"/>
<rect x="25" y="38" width="1" height="1"/>
<rect x="25" y="39" width="1" height="1"/>
<rect x="25" y="40" width="1" height="1"/>
<rect x="25" y="41" width="1" height="1"/>
<rect x="24" y="41" width="1" height="1"/>
<rect x="24" y="42" width="1" height="1"/>
<rect x="25" y="42" width="1" height="1"/>
<rect x="25" y="43" width="1" height="1"/>
<rect x="26" y="43" width="1" height="1"/>
<rect x="26" y="42" width="1" height="1"/>
<rect x="26" y="41" width="1" height="1"/>
<rect x="26" y="40" width="1" height="1"/>
<rect x="27" y="42" width="1" height="1"/>
<rect x="27" y="43" width="1" height="1"/>
<rect x="28" y="43" width="1" height="1"/>
<rect x="29" y="43" width="1" height="1"/>
<rect x="30" y="43" width="1" height="1"/>
<rect x="31" y="43" width="1" height="1"/>
<rect x="32" y="43" width="1" height="1"/>
<rect x="33" y="43" width="1" height="1"/>
<rect x="34" y="43" width="1" height="1"/>
<rect x="35" y="43" width="1" height="1"/>
<rect x="36" y="43" width="1" height="1"/>
<rect x="37" y="43" width="1" height="1"/>
<rect x="38" y="43" width="1" height="1"/>
<rect x="39" y="43" width="1" height="1"/>
<rect x="39" y="42" width="1" height="1"/>
<rect x="39" y="41" width="1" height="1"/>
<rect x="40" y="41" width="1" height="1"/>
<rect x="40" y="40" width="1" height="1"/>
<rect x="41" y="40" width="1" height="1"/>
<rect x="41" y="39" width="1" height="1"/>
<rect x="41" y="38" width="1" height="1"/>
<rect x="41" y="37" width="1" height="1"/>
<rect x="42" y="37" width="1" height="1"/>
<rect x="42" y="36" width="1" height="1"/>
<rect x="42" y="38" width="1" height="1"/>
<rect x="41" y="36" width="1" height="1"/>
<rect x="40" y="37" width="1" height="1"/>
<rect x="39" y="38" width="1" height="1"/>
<rect x="39" y="39" width="1" height="1"/>
<rect x="38" y="39" width="1" height="1"/>
<rect x="38" y="40" width="1" height="1"/>
<rect x="40" y="39" width="1" height="1"/>
<rect x="40" y="38" width="1" height="1"/>
<rect x="39" y="40" width="1" height="1"/>
<rect x="38" y="41" width="1" height="1"/>
<rect x="38" y="42" width="1" height="1"/>
<rect x="37" y="42" width="1" height="1"/>
<rect x="36" y="42" width="1" height="1"/>
<rect x="35" y="42" width="1" height="1"/>
<rect x="34" y="42" width="1" height="1"/>
<rect x="33" y="42" width="1" height="1"/>
<rect x="32" y="42" width="1" height="1"/>
<rect x="31" y="42" width="1" height="1"/>
<rect x="30" y="42" width="1" height="1"/>
<rect x="29" y="42" width="1" height="1"/>
<rect x="28" y="42" width="1" height="1"/>
<rect x="37" y="41" width="1" height="1"/>
<rect x="37" y="40" width="1" height="1"/>
<rect x="38" y="38" width="1" height="1"/>
<rect x="39" y="37" width="1" height="1"/>
<rect x="44" y="33" width="1" height="1"/>
<rect x="43" y="33" width="1" height="1"/>
<rect x="34" y="36" width="1" height="1"/>
<rect x="33" y="36" width="1" height="1"/>
<rect x="32" y="36" width="1" height="1"/>
<rect x="31" y="36" width="1" height="1"/>
<rect x="30" y="36" width="1" height="1"/>
<rect x="29" y="36" width="1" height="1"/>
<rect x="28" y="36" width="1" height="1"/>
<rect x="27" y="36" width="1" height="1"/>
<rect x="28" y="35" width="1" height="1"/>
<rect x="29" y="35" width="1" height="1"/>
<rect x="30" y="35" width="1" height="1"/>
<rect x="31" y="35" width="1" height="1"/>
<rect x="32" y="35" width="1" height="1"/>
<rect x="33" y="35" width="1" height="1"/>
<rect x="34" y="35" width="1" height="1"/>
<rect x="35" y="35" width="1" height="1"/>
<rect x="19" y="31" width="1" height="1"/>
<rect x="19" y="32" width="1" height="1"/>
<rect x="44" y="31" width="1" height="1"/>
<rect x="44" y="32" width="1" height="1"/>
<rect x="44" y="30" width="1" height="1"/>
<rect x="44" y="29" width="1" height="1"/>
<rect x="19" y="30" width="1" height="1"/>
<rect x="19" y="29" width="1" height="1"/>
</g>
</g>
<g data-layer="mouth" data-fullness="full" data-color="rose">
<g data-piece="color-1" data-color="#8a4a3c" data-color-label="Color 1" fill="#8a4a3c">
<rect x="27" y="38" width="10" height="1"/>
</g>
<g data-piece="lip" data-color-token="lip" data-color-label="Lip" fill="#a05a4a">
<rect x="28" y="39" width="8" height="2"/>
</g>
<g data-piece="skin-hi" data-color-token="skin.hi" data-color-label="Skin Hi" fill="#f2d2b6"></g>
<g data-piece="skin-sh" data-color-token="skin.sh" data-color-label="Skin Sh" fill="#d2a380"></g>
</g>
<g data-layer="hair" data-style="wavy" data-color="blonde">
<g data-piece="hair-base" data-color-token="hair.base" data-color-label="Hair Base" fill="#c79a44">
<rect x="19" y="5" width="26" height="3"/>
<rect x="15" y="11" width="34" height="3"/>
<rect x="14" y="17" width="2" height="6"/>
<rect x="48" y="17" width="2" height="6"/>
<rect x="17" y="17" width="1" height="1"/>
<rect x="18" y="17" width="1" height="1"/>
<rect x="19" y="17" width="1" height="1"/>
<rect x="20" y="17" width="1" height="1"/>
<rect x="21" y="17" width="1" height="1"/>
<rect x="22" y="17" width="1" height="1"/>
<rect x="23" y="17" width="1" height="1"/>
<rect x="24" y="17" width="1" height="1"/>
<rect x="24" y="16" width="1" height="1"/>
<rect x="25" y="16" width="1" height="1"/>
<rect x="26" y="16" width="1" height="1"/>
<rect x="27" y="16" width="1" height="1"/>
<rect x="47" y="17" width="1" height="1"/>
<rect x="46" y="17" width="1" height="1"/>
<rect x="45" y="17" width="1" height="1"/>
<rect x="44" y="17" width="1" height="1"/>
<rect x="43" y="17" width="1" height="1"/>
<rect x="42" y="17" width="1" height="1"/>
<rect x="41" y="17" width="1" height="1"/>
<rect x="40" y="17" width="1" height="1"/>
<rect x="39" y="17" width="1" height="1"/>
<rect x="38" y="17" width="1" height="1"/>
<rect x="37" y="17" width="1" height="1"/>
<rect x="36" y="17" width="1" height="1"/>
<rect x="35" y="17" width="1" height="1"/>
<rect x="34" y="17" width="1" height="1"/>
<rect x="33" y="17" width="1" height="1"/>
<rect x="32" y="17" width="1" height="1"/>
<rect x="31" y="17" width="1" height="1"/>
<rect x="30" y="17" width="1" height="1"/>
<rect x="29" y="17" width="1" height="1"/>
<rect x="28" y="17" width="1" height="1"/>
<rect x="16" y="17" width="1" height="1"/>
<rect x="25" y="17" width="1" height="1"/>
<rect x="26" y="17" width="1" height="1"/>
<rect x="27" y="17" width="1" height="1"/>
<rect x="16" y="18" width="1" height="1"/>
<rect x="17" y="18" width="1" height="1"/>
<rect x="18" y="18" width="1" height="1"/>
<rect x="19" y="18" width="1" height="1"/>
<rect x="20" y="18" width="1" height="1"/>
<rect x="21" y="18" width="1" height="1"/>
<rect x="22" y="18" width="1" height="1"/>
<rect x="23" y="18" width="1" height="1"/>
<rect x="24" y="18" width="1" height="1"/>
<rect x="25" y="18" width="1" height="1"/>
<rect x="26" y="18" width="1" height="1"/>
<rect x="47" y="18" width="1" height="1"/>
<rect x="46" y="18" width="1" height="1"/>
<rect x="45" y="18" width="1" height="1"/>
<rect x="44" y="18" width="1" height="1"/>
<rect x="43" y="18" width="1" height="1"/>
<rect x="42" y="18" width="1" height="1"/>
<rect x="41" y="18" width="1" height="1"/>
<rect x="40" y="18" width="1" height="1"/>
<rect x="39" y="18" width="1" height="1"/>
<rect x="38" y="18" width="1" height="1"/>
<rect x="37" y="18" width="1" height="1"/>
<rect x="36" y="18" width="1" height="1"/>
<rect x="35" y="18" width="1" height="1"/>
<rect x="34" y="18" width="1" height="1"/>
<rect x="33" y="18" width="1" height="1"/>
<rect x="32" y="18" width="1" height="1"/>
<rect x="31" y="18" width="1" height="1"/>
<rect x="48" y="19" width="1" height="1"/>
<rect x="47" y="19" width="1" height="1"/>
<rect x="46" y="19" width="1" height="1"/>
<rect x="45" y="19" width="1" height="1"/>
<rect x="44" y="19" width="1" height="1"/>
<rect x="43" y="19" width="1" height="1"/>
<rect x="42" y="19" width="1" height="1"/>
<rect x="41" y="19" width="1" height="1"/>
<rect x="40" y="19" width="1" height="1"/>
<rect x="39" y="19" width="1" height="1"/>
<rect x="38" y="19" width="1" height="1"/>
<rect x="37" y="19" width="1" height="1"/>
<rect x="36" y="19" width="1" height="1"/>
<rect x="47" y="20" width="1" height="1"/>
<rect x="46" y="20" width="1" height="1"/>
<rect x="45" y="20" width="1" height="1"/>
<rect x="44" y="20" width="1" height="1"/>
<rect x="43" y="20" width="1" height="1"/>
<rect x="42" y="20" width="1" height="1"/>
<rect x="41" y="20" width="1" height="1"/>
<rect x="40" y="20" width="1" height="1"/>
<rect x="39" y="20" width="1" height="1"/>
<rect x="38" y="20" width="1" height="1"/>
<rect x="16" y="19" width="1" height="1"/>
<rect x="17" y="19" width="1" height="1"/>
<rect x="18" y="19" width="1" height="1"/>
<rect x="19" y="19" width="1" height="1"/>
<rect x="20" y="19" width="1" height="1"/>
<rect x="21" y="19" width="1" height="1"/>
<rect x="22" y="19" width="1" height="1"/>
<rect x="23" y="19" width="1" height="1"/>
<rect x="24" y="19" width="1" height="1"/>
<rect x="24" y="20" width="1" height="1"/>
<rect x="16" y="20" width="1" height="1"/>
<rect x="17" y="20" width="1" height="1"/>
<rect x="18" y="20" width="1" height="1"/>
<rect x="19" y="20" width="1" height="1"/>
<rect x="20" y="20" width="1" height="1"/>
<rect x="48" y="21" width="1" height="1"/>
<rect x="49" y="20" width="1" height="1"/>
<rect x="47" y="21" width="1" height="1"/>
<rect x="46" y="21" width="1" height="1"/>
<rect x="46" y="22" width="1" height="1"/>
<rect x="45" y="22" width="1" height="1"/>
<rect x="15" y="21" width="1" height="1"/>
<rect x="16" y="21" width="1" height="1"/>
<rect x="17" y="21" width="1" height="1"/>
<rect x="18" y="21" width="1" height="1"/>
<rect x="19" y="22" width="1" height="1"/>
</g>
<g data-piece="hair-hi" data-color-token="hair.hi" data-color-label="Hair Hi" fill="#e6c878">
<rect x="16" y="8" width="32" height="3"/>
<rect x="14" y="14" width="36" height="3"/>
<rect x="21" y="4" width="22" height="1"/>
<rect x="22" y="6" width="3" height="2"/>
<rect x="30" y="5" width="3" height="2"/>
<rect x="38" y="6" width="3" height="2"/>
</g>
</g>
<g data-layer="headband" data-style="none">
</g>
</g>
</g>
</svg>