<svg width="64" height="64" viewBox="0 0 64 64" xmlns="http://www.w3.org/2000/svg" shape-rendering="crispEdges">
  <g data-piece="lip" data-color-token="lip" data-color-label="Lip">
    <rect x="27" y="37" width="1" height="1"/>
    <rect x="27" y="38" width="1" height="1"/>
    <rect x="28" y="38" width="1" height="1"/>
    <rect x="28" y="37" width="1" height="1"/>
    <rect x="29" y="38" width="1" height="1"/>
    <rect x="30" y="38" width="1" height="1"/>
    <rect x="31" y="38" width="1" height="1"/>
    <rect x="32" y="38" width="1" height="1"/>
    <rect x="33" y="38" width="1" height="1"/>
    <rect x="34" y="38" width="1" height="1"/>
    <rect x="35" y="38" width="1" height="1"/>
    <rect x="36" y="38" width="1" height="1"/>
    <rect x="36" y="37" width="1" height="1"/>
    <rect x="37" y="37" width="1" height="1"/>
    <rect x="37" y="38" width="1" height="1"/>
    <rect x="37" y="39" width="1" height="1"/>
    <rect x="37" y="40" width="1" height="1"/>
    <rect x="36" y="40" width="1" height="1"/>
    <rect x="35" y="40" width="1" height="1"/>
    <rect x="34" y="40" width="1" height="1"/>
    <rect x="33" y="40" width="1" height="1"/>
    <rect x="32" y="40" width="1" height="1"/>
    <rect x="27" y="39" width="1" height="1"/>
    <rect x="27" y="40" width="1" height="1"/>
    <rect x="28" y="40" width="1" height="1"/>
    <rect x="29" y="40" width="1" height="1"/>
    <rect x="30" y="40" width="1" height="1"/>
    <rect x="31" y="40" width="1" height="1"/>
    <rect x="29" y="37" width="1" height="1"/>
    <rect x="30" y="37" width="1" height="1"/>
    <rect x="31" y="37" width="1" height="1"/>
    <rect x="32" y="37" width="1" height="1"/>
    <rect x="33" y="37" width="1" height="1"/>
    <rect x="34" y="37" width="1" height="1"/>
    <rect x="35" y="37" width="1" height="1"/>
  </g>
  <g data-piece="teeth" data-color="#c2c2c2" data-color-label="Grill base">
    <rect x="36" y="39" width="1" height="1"/>
    <rect x="35" y="39" width="1" height="1"/>
    <rect x="34" y="39" width="1" height="1"/>
    <rect x="33" y="39" width="1" height="1"/>
    <rect x="32" y="39" width="1" height="1"/>
    <rect x="31" y="39" width="1" height="1"/>
    <rect x="30" y="39" width="1" height="1"/>
    <rect x="29" y="39" width="1" height="1"/>
    <rect x="28" y="39" width="1" height="1"/>
    <rect x="36" y="38" width="1" height="1"/>
    <rect x="28" y="38" width="1" height="1"/>
    <rect x="29" y="38" width="1" height="1"/>
    <rect x="30" y="38" width="1" height="1"/>
    <rect x="31" y="38" width="1" height="1"/>
    <rect x="32" y="38" width="1" height="1"/>
    <rect x="33" y="38" width="1" height="1"/>
    <rect x="34" y="38" width="1" height="1"/>
    <rect x="35" y="38" width="1" height="1"/>
  </g>
  <g data-piece="teeth-shadow" data-color="#fefb41" data-color-label="Grill highlight">
    <rect x="29" y="39" width="1" height="1"/>
    <rect x="31" y="38" width="1" height="1"/>
    <rect x="32" y="39" width="1" height="1"/>
    <rect x="34" y="38" width="1" height="1"/>
    <rect x="35" y="39" width="1" height="1"/>
    <rect x="36" y="38" width="1" height="1"/>
    <rect x="28" y="38" width="1" height="1"/>
  </g>
</svg>